<svg width="1900" height="440" viewBox="0 0 1900 440" fill="none" xmlns="http://www.w3.org/2000/svg">
<g clip-path="url(#clip0_1133_21631)">
<g filter="url(#filter0_f_1133_21631)">
<circle cx="576.5" cy="213.5" r="195" transform="rotate(-90 576.5 213.5)" stroke="#010101"/>
</g>
<g filter="url(#filter1_f_1133_21631)">
<circle cx="576.5" cy="213.5" r="195" transform="rotate(-90 576.5 213.5)" stroke="#010101"/>
</g>
<circle cx="576.5" cy="213.5" r="195" transform="rotate(-90 576.5 213.5)" stroke="#010101"/>
<g filter="url(#filter2_f_1133_21631)">
<circle cx="576.5" cy="213.5" r="149" transform="rotate(-90 576.5 213.5)" stroke="#010101"/>
</g>
<g filter="url(#filter3_f_1133_21631)">
<circle cx="576.5" cy="213.5" r="149" transform="rotate(-90 576.5 213.5)" stroke="#010101"/>
</g>
<circle cx="576.5" cy="213.5" r="149" transform="rotate(-90 576.5 213.5)" stroke="#010101"/>
<g filter="url(#filter4_f_1133_21631)">
<circle cx="1324.5" cy="213.5" r="195.5" transform="rotate(-90 1324.5 213.5)" fill="#010101"/>
</g>
<circle cx="1324.5" cy="213.5" r="195.5" transform="rotate(-90 1324.5 213.5)" fill="#010101"/>
<g clip-path="url(#clip1_1133_21631)" filter="url(#filter5_f_1133_21631)">
<path d="M1294.04 243.452L1323.93 224.656L1353.99 243.196L1335.19 213.297L1353.73 183.244L1323.84 202.042L1293.78 183.499L1312.58 213.389L1294.04 243.452Z" fill="#E6E6E6"/>
<path d="M1329.23 194.271L1323.69 170.955L1318.37 194.321L1323.82 197.667L1329.23 194.271Z" fill="#E6E6E6"/>
<path d="M1308.21 213.414L1304.81 207.997L1281.49 213.528L1304.86 218.853L1308.21 213.414Z" fill="#E6E6E6"/>
<path d="M1339.56 213.281L1342.95 218.691L1366.27 213.159L1342.91 207.832L1339.56 213.281Z" fill="#E6E6E6"/>
<path d="M1318.53 232.417L1324.06 255.733L1329.39 232.378L1323.95 229.019L1318.53 232.417Z" fill="#E6E6E6"/>
</g>
<g clip-path="url(#clip2_1133_21631)" filter="url(#filter6_f_1133_21631)">
<path d="M1294.04 243.452L1323.93 224.656L1353.99 243.196L1335.19 213.297L1353.73 183.244L1323.84 202.042L1293.78 183.499L1312.58 213.389L1294.04 243.452Z" fill="#E6E6E6"/>
<path d="M1329.23 194.271L1323.69 170.955L1318.37 194.321L1323.82 197.667L1329.23 194.271Z" fill="#E6E6E6"/>
<path d="M1308.21 213.414L1304.81 207.997L1281.49 213.528L1304.86 218.853L1308.21 213.414Z" fill="#E6E6E6"/>
<path d="M1339.56 213.281L1342.95 218.691L1366.27 213.159L1342.91 207.832L1339.56 213.281Z" fill="#E6E6E6"/>
<path d="M1318.53 232.417L1324.06 255.733L1329.39 232.378L1323.95 229.019L1318.53 232.417Z" fill="#E6E6E6"/>
</g>
<g clip-path="url(#clip3_1133_21631)">
<path d="M1294.04 243.452L1323.93 224.656L1353.99 243.196L1335.19 213.297L1353.73 183.244L1323.84 202.042L1293.78 183.499L1312.58 213.389L1294.04 243.452Z" fill="#E6E6E6"/>
<path d="M1329.23 194.271L1323.69 170.955L1318.37 194.321L1323.82 197.667L1329.23 194.271Z" fill="#E6E6E6"/>
<path d="M1308.21 213.414L1304.81 207.997L1281.49 213.528L1304.86 218.853L1308.21 213.414Z" fill="#E6E6E6"/>
<path d="M1339.56 213.281L1342.95 218.691L1366.27 213.159L1342.91 207.832L1339.56 213.281Z" fill="#E6E6E6"/>
<path d="M1318.53 232.417L1324.06 255.733L1329.39 232.378L1323.95 229.019L1318.53 232.417Z" fill="#E6E6E6"/>
</g>
<g filter="url(#filter7_f_1133_21631)">
<circle cx="1324.5" cy="213.5" r="149" transform="rotate(-90 1324.5 213.5)" stroke="#E6E6E6"/>
</g>
<g filter="url(#filter8_f_1133_21631)">
<circle cx="1324.5" cy="213.5" r="149" transform="rotate(-90 1324.5 213.5)" stroke="#E6E6E6"/>
</g>
<circle cx="1324.5" cy="213.5" r="149" transform="rotate(-90 1324.5 213.5)" stroke="#E6E6E6"/>
<g filter="url(#filter9_f_1133_21631)">
<path d="M1860.24 98.584C1900.19 138.541 1867.39 236.127 1786.97 316.549C1706.55 396.971 1608.96 429.774 1569 389.817L1536.03 356.846C1580.52 399.705 1680.67 370.089 1760.59 290.171C1840.51 210.252 1870.12 110.104 1827.27 65.6137L1860.24 98.584ZM1531.94 352.507C1532.72 353.419 1533.53 354.31 1534.37 355.18L1531.81 352.628L1531.94 352.507ZM1823.05 61.3953L1825.6 63.9475C1824.73 63.1094 1823.84 62.2989 1822.93 61.5161L1823.05 61.3953Z" fill="#010101"/>
</g>
<g filter="url(#filter10_f_1133_21631)">
<mask id="path-28-inside-1_1133_21631" fill="white">
<path d="M1860.24 98.584C1900.19 138.541 1867.39 236.127 1786.97 316.549C1780.58 322.934 1774.09 329.019 1767.52 334.791L1658.59 225.855L1823.05 61.3953L1860.24 98.584ZM1767.45 334.857C1755.22 345.605 1742.75 355.268 1730.27 363.763L1625.47 258.968L1658.52 225.925L1767.45 334.857ZM1730.19 363.82C1718.84 371.538 1707.5 378.29 1696.34 384.018L1598.38 286.061L1625.4 259.038L1730.19 363.82ZM1696.25 384.066C1685.94 389.351 1675.78 393.762 1665.92 397.25L1576.56 307.886L1598.31 286.132L1696.25 384.066ZM1665.82 397.287C1657.37 400.268 1649.15 402.575 1641.23 404.172L1560.75 323.69L1576.49 307.957L1665.82 397.287ZM1641.12 404.196C1632.06 406.016 1623.41 406.906 1615.29 406.827L1546.45 337.989L1560.68 323.761L1641.12 404.196ZM1615.15 406.826C1607.81 406.744 1600.91 405.867 1594.56 404.158L1537.42 347.021L1546.38 338.06L1615.15 406.826ZM1594.37 404.107C1584.46 401.412 1575.88 396.692 1569 389.817L1531.81 352.628L1537.35 347.091L1594.37 404.107Z"/>
</mask>
<path d="M1860.24 98.584C1900.19 138.541 1867.39 236.127 1786.97 316.549C1780.58 322.934 1774.09 329.019 1767.52 334.791L1658.59 225.855L1823.05 61.3953L1860.24 98.584ZM1767.45 334.857C1755.22 345.605 1742.75 355.268 1730.27 363.763L1625.47 258.968L1658.52 225.925L1767.45 334.857ZM1730.19 363.82C1718.84 371.538 1707.5 378.29 1696.34 384.018L1598.38 286.061L1625.4 259.038L1730.19 363.82ZM1696.25 384.066C1685.94 389.351 1675.78 393.762 1665.92 397.25L1576.56 307.886L1598.31 286.132L1696.25 384.066ZM1665.82 397.287C1657.37 400.268 1649.15 402.575 1641.23 404.172L1560.75 323.69L1576.49 307.957L1665.82 397.287ZM1641.12 404.196C1632.06 406.016 1623.41 406.906 1615.29 406.827L1546.45 337.989L1560.68 323.761L1641.12 404.196ZM1615.15 406.826C1607.81 406.744 1600.91 405.867 1594.56 404.158L1537.42 347.021L1546.38 338.06L1615.15 406.826ZM1594.37 404.107C1584.46 401.412 1575.88 396.692 1569 389.817L1531.81 352.628L1537.35 347.091L1594.37 404.107Z" fill="#010101"/>
<path d="M1786.97 316.549L1787.68 317.256L1786.97 316.549ZM1767.52 334.791L1766.82 335.499L1767.48 336.162L1768.18 335.542L1767.52 334.791ZM1658.59 225.855L1657.88 225.148L1657.17 225.855L1657.88 226.562L1658.59 225.855ZM1823.05 61.3953L1823.75 60.6882L1823.05 59.981L1822.34 60.6882L1823.05 61.3953ZM1767.45 334.857L1768.11 335.608L1768.91 334.904L1768.16 334.15L1767.45 334.857ZM1730.27 363.763L1729.56 364.471L1730.15 365.056L1730.83 364.59L1730.27 363.763ZM1625.47 258.968L1624.77 258.261L1624.06 258.968L1624.77 259.675L1625.47 258.968ZM1658.52 225.925L1659.22 225.218L1658.52 224.511L1657.81 225.218L1658.52 225.925ZM1730.19 363.82L1730.75 364.647L1731.75 363.967L1730.89 363.113L1730.19 363.82ZM1696.34 384.018L1695.63 384.725L1696.15 385.241L1696.79 384.908L1696.34 384.018ZM1598.38 286.061L1597.67 285.354L1596.97 286.061L1597.67 286.768L1598.38 286.061ZM1625.4 259.038L1626.11 258.331L1625.4 257.624L1624.7 258.331L1625.4 259.038ZM1696.25 384.066L1696.7 384.956L1697.92 384.329L1696.95 383.359L1696.25 384.066ZM1665.92 397.25L1665.21 397.957L1665.66 398.403L1666.25 398.192L1665.92 397.25ZM1576.56 307.886L1575.85 307.179L1575.14 307.886L1575.85 308.593L1576.56 307.886ZM1598.31 286.132L1599.02 285.424L1598.31 284.717L1597.6 285.424L1598.31 286.132ZM1665.82 397.287L1666.15 398.23L1667.64 397.701L1666.52 396.58L1665.82 397.287ZM1641.23 404.172L1640.53 404.879L1640.91 405.258L1641.43 405.152L1641.23 404.172ZM1560.75 323.69L1560.04 322.983L1559.34 323.69L1560.04 324.398L1560.75 323.69ZM1576.49 307.957L1577.19 307.249L1576.49 306.542L1575.78 307.249L1576.49 307.957ZM1641.12 404.196L1641.31 405.176L1643.14 404.808L1641.82 403.489L1641.12 404.196ZM1615.29 406.827L1614.58 407.534L1614.87 407.823L1615.28 407.827L1615.29 406.827ZM1546.45 337.989L1545.75 337.282L1545.04 337.989L1545.75 338.696L1546.45 337.989ZM1560.68 323.761L1561.39 323.054L1560.68 322.347L1559.97 323.054L1560.68 323.761ZM1615.15 406.826L1615.14 407.826L1617.59 407.853L1615.86 406.119L1615.15 406.826ZM1594.56 404.158L1593.85 404.865L1594.04 405.054L1594.3 405.123L1594.56 404.158ZM1537.42 347.021L1536.71 346.314L1536.01 347.021L1536.71 347.728L1537.42 347.021ZM1546.38 338.06L1547.09 337.353L1546.38 336.646L1545.68 337.353L1546.38 338.06ZM1594.37 404.107L1594.1 405.072L1597.73 406.059L1595.07 403.4L1594.37 404.107ZM1531.81 352.628L1531.11 351.921L1530.4 352.628L1531.11 353.335L1531.81 352.628ZM1537.35 347.091L1538.06 346.384L1537.35 345.677L1536.64 346.384L1537.35 347.091ZM1860.24 98.584L1859.53 99.2911C1879.09 118.855 1881.02 152.74 1867.8 192.074C1854.6 231.342 1826.39 275.716 1786.26 315.842L1786.97 316.549L1787.68 317.256C1827.97 276.96 1856.37 232.33 1869.69 192.711C1882.99 153.157 1881.34 118.27 1860.94 97.8769L1860.24 98.584ZM1786.97 316.549L1786.26 315.842C1779.89 322.212 1773.41 328.282 1766.86 334.041L1767.52 334.791L1768.18 335.542C1774.76 329.756 1781.27 323.657 1787.68 317.256L1786.97 316.549ZM1767.52 334.791L1768.23 334.084L1659.29 225.148L1658.59 225.855L1657.88 226.562L1766.82 335.499L1767.52 334.791ZM1658.59 225.855L1659.29 226.562L1823.75 62.1024L1823.05 61.3953L1822.34 60.6882L1657.88 225.148L1658.59 225.855ZM1823.05 61.3953L1822.34 62.1024L1859.53 99.2911L1860.24 98.584L1860.94 97.8769L1823.75 60.6882L1823.05 61.3953ZM1767.45 334.857L1766.79 334.106C1754.59 344.828 1742.15 354.465 1729.71 362.937L1730.27 363.763L1730.83 364.59C1743.34 356.07 1755.85 346.382 1768.11 335.608L1767.45 334.857ZM1730.27 363.763L1730.98 363.056L1626.18 258.261L1625.47 258.968L1624.77 259.675L1729.56 364.471L1730.27 363.763ZM1625.47 258.968L1626.18 259.675L1659.22 226.632L1658.52 225.925L1657.81 225.218L1624.77 258.261L1625.47 258.968ZM1658.52 225.925L1657.81 226.632L1766.74 335.564L1767.45 334.857L1768.16 334.15L1659.22 225.218L1658.52 225.925ZM1730.19 363.82L1729.62 362.993C1718.31 370.689 1707.01 377.42 1695.88 383.129L1696.34 384.018L1696.79 384.908C1708 379.16 1719.38 372.386 1730.75 364.647L1730.19 363.82ZM1696.34 384.018L1697.05 383.311L1599.09 285.354L1598.38 286.061L1597.67 286.768L1695.63 384.725L1696.34 384.018ZM1598.38 286.061L1599.09 286.768L1626.11 259.746L1625.4 259.038L1624.7 258.331L1597.67 285.354L1598.38 286.061ZM1625.4 259.038L1624.7 259.746L1729.48 364.527L1730.19 363.82L1730.89 363.113L1626.11 258.331L1625.4 259.038ZM1696.25 384.066L1695.79 383.176C1685.51 388.443 1675.4 392.835 1665.59 396.307L1665.92 397.25L1666.25 398.192C1676.16 394.688 1686.36 390.26 1696.7 384.956L1696.25 384.066ZM1665.92 397.25L1666.63 396.542L1577.26 307.179L1576.56 307.886L1575.85 308.593L1665.21 397.957L1665.92 397.25ZM1576.56 307.886L1577.26 308.593L1599.02 286.839L1598.31 286.132L1597.6 285.424L1575.85 307.179L1576.56 307.886ZM1598.31 286.132L1597.6 286.839L1695.54 384.773L1696.25 384.066L1696.95 383.359L1599.02 285.424L1598.31 286.132ZM1665.82 397.287L1665.48 396.344C1657.08 399.312 1648.9 401.605 1641.04 403.192L1641.23 404.172L1641.43 405.152C1649.4 403.545 1657.67 401.225 1666.15 398.23L1665.82 397.287ZM1641.23 404.172L1641.94 403.465L1561.46 322.983L1560.75 323.69L1560.04 324.398L1640.53 404.879L1641.23 404.172ZM1560.75 323.69L1561.46 324.398L1577.19 308.664L1576.49 307.957L1575.78 307.249L1560.04 322.983L1560.75 323.69ZM1576.49 307.957L1575.78 308.664L1665.11 397.994L1665.82 397.287L1666.52 396.58L1577.19 307.249L1576.49 307.957ZM1641.12 404.196L1640.92 403.215C1631.92 405.024 1623.34 405.905 1615.3 405.827L1615.29 406.827L1615.28 407.827C1623.47 407.907 1632.2 407.008 1641.31 405.176L1641.12 404.196ZM1615.29 406.827L1616 406.12L1547.16 337.282L1546.45 337.989L1545.75 338.696L1614.58 407.534L1615.29 406.827ZM1546.45 337.989L1547.16 338.696L1561.39 324.468L1560.68 323.761L1559.97 323.054L1545.75 337.282L1546.45 337.989ZM1560.68 323.761L1559.97 324.468L1640.41 404.903L1641.12 404.196L1641.82 403.489L1561.39 323.054L1560.68 323.761ZM1615.15 406.826L1615.16 405.826C1607.89 405.745 1601.08 404.876 1594.82 403.192L1594.56 404.158L1594.3 405.123C1600.75 406.857 1607.73 407.743 1615.14 407.826L1615.15 406.826ZM1594.56 404.158L1595.27 403.451L1538.13 346.314L1537.42 347.021L1536.71 347.728L1593.85 404.865L1594.56 404.158ZM1537.42 347.021L1538.13 347.728L1547.09 338.767L1546.38 338.06L1545.68 337.353L1536.71 346.314L1537.42 347.021ZM1546.38 338.06L1545.68 338.767L1614.44 407.533L1615.15 406.826L1615.86 406.119L1547.09 337.353L1546.38 338.06ZM1594.37 404.107L1594.63 403.142C1584.87 400.488 1576.45 395.847 1569.71 389.11L1569 389.817L1568.3 390.524C1575.31 397.537 1584.05 402.337 1594.1 405.072L1594.37 404.107ZM1569 389.817L1569.71 389.11L1532.52 351.921L1531.81 352.628L1531.11 353.335L1568.3 390.524L1569 389.817ZM1531.81 352.628L1532.52 353.335L1538.06 347.798L1537.35 347.091L1536.64 346.384L1531.11 351.921L1531.81 352.628ZM1537.35 347.091L1536.64 347.798L1593.66 404.814L1594.37 404.107L1595.07 403.4L1538.06 346.384L1537.35 347.091Z" fill="#E6E6E6" mask="url(#path-28-inside-1_1133_21631)"/>
</g>
<ellipse cx="1678.98" cy="208.667" rx="205.945" ry="112.817" transform="rotate(-45 1678.98 208.667)" fill="#010101"/>
<g filter="url(#filter11_f_1133_21631)">
<path d="M1599.56 129.247C1639.73 89.0812 1684.99 61.6543 1725.69 49.7654C1766.4 37.8706 1802.41 41.5562 1824.25 63.3958C1846.09 85.2355 1849.78 121.248 1837.88 161.963C1825.99 202.657 1798.57 247.922 1758.4 288.087C1718.24 328.253 1672.97 355.679 1632.28 367.568C1591.56 379.462 1555.55 375.777 1533.71 353.938C1511.87 332.098 1508.19 296.085 1520.08 255.37C1531.97 214.676 1559.4 169.412 1599.56 129.247Z" stroke="#E6E6E6"/>
</g>
<g filter="url(#filter12_f_1133_21631)">
<ellipse cx="1678.98" cy="208.667" rx="205.945" ry="112.817" transform="rotate(-45 1678.98 208.667)" fill="#010101"/>
<path d="M1599.56 129.247C1639.73 89.0812 1684.99 61.6543 1725.69 49.7654C1766.4 37.8706 1802.41 41.5562 1824.25 63.3958C1846.09 85.2355 1849.78 121.248 1837.88 161.963C1825.99 202.657 1798.57 247.922 1758.4 288.087C1718.24 328.253 1672.97 355.679 1632.28 367.568C1591.56 379.462 1555.55 375.777 1533.71 353.938C1511.87 332.098 1508.19 296.085 1520.08 255.37C1531.97 214.676 1559.4 169.412 1599.56 129.247Z" stroke="#E6E6E6"/>
</g>
<path d="M1824.61 63.0424C1868.66 107.1 1839.18 208.015 1758.76 288.441C1678.33 368.867 1577.42 398.35 1533.36 354.292" stroke="url(#paint0_linear_1133_21631)"/>
<g filter="url(#filter13_f_1133_21631)">
<path d="M1824.61 63.0424C1868.66 107.1 1839.18 208.015 1758.76 288.441C1678.33 368.867 1577.42 398.35 1533.36 354.292" stroke="url(#paint1_linear_1133_21631)"/>
</g>
<g filter="url(#filter14_f_1133_21631)">
<path d="M1623.64 153.331C1654.88 122.095 1689.16 99.8501 1719.31 89.1234C1749.5 78.383 1775.38 79.2431 1790.02 93.8902C1804.67 108.537 1805.53 134.411 1794.79 164.602C1784.07 194.755 1761.82 229.034 1730.58 260.27C1699.35 291.506 1665.07 313.751 1634.92 324.478C1604.72 335.219 1578.85 334.358 1564.2 319.711C1549.56 305.063 1548.7 279.191 1559.44 248.999C1570.16 218.847 1592.41 184.568 1623.64 153.331Z" stroke="#E6E6E6"/>
<path d="M1793.96 98.1877C1768.54 72.773 1697.48 102.63 1635.23 164.876C1572.99 227.121 1543.13 298.184 1568.55 323.598" stroke="#E6E6E6"/>
</g>
<g filter="url(#filter15_f_1133_21631)">
<path d="M1623.64 153.33C1654.88 122.094 1689.16 99.8491 1719.31 89.1224C1749.5 78.382 1775.38 79.2421 1790.02 93.8892C1804.67 108.536 1805.53 134.41 1794.79 164.601C1784.07 194.754 1761.82 229.033 1730.58 260.269C1699.35 291.505 1665.07 313.75 1634.92 324.477C1604.72 335.218 1578.85 334.357 1564.2 319.71C1549.56 305.062 1548.7 279.19 1559.44 248.998C1570.16 218.846 1592.41 184.567 1623.64 153.33Z" stroke="#E6E6E6"/>
<path d="M1793.96 98.1867C1768.54 72.7721 1697.48 102.629 1635.23 164.875C1572.99 227.12 1543.13 298.183 1568.55 323.597" stroke="#E6E6E6"/>
</g>
<path d="M1623.64 153.33C1654.88 122.094 1689.16 99.8491 1719.31 89.1224C1749.5 78.382 1775.38 79.2421 1790.02 93.8892C1804.67 108.536 1805.53 134.41 1794.79 164.601C1784.07 194.754 1761.82 229.033 1730.58 260.269C1699.35 291.505 1665.07 313.75 1634.92 324.477C1604.72 335.218 1578.85 334.357 1564.2 319.71C1549.56 305.062 1548.7 279.19 1559.44 248.998C1570.16 218.846 1592.41 184.567 1623.64 153.33Z" stroke="#E6E6E6"/>
<path d="M1793.96 98.1867C1768.54 72.7721 1697.48 102.629 1635.23 164.875C1572.99 227.12 1543.13 298.183 1568.55 323.597" stroke="#E6E6E6"/>
<g filter="url(#filter16_f_1133_21631)">
<path d="M1117.24 98.584C1157.19 138.541 1124.39 236.127 1043.97 316.549C963.546 396.971 865.96 429.774 826.003 389.817L793.033 356.846C837.523 399.705 937.671 370.089 1017.59 290.171C1097.51 210.252 1127.12 110.104 1084.27 65.6137L1117.24 98.584ZM788.935 352.507C789.718 353.419 790.529 354.31 791.367 355.18L788.814 352.628L788.935 352.507ZM1080.05 61.3953L1082.6 63.9475C1081.73 63.1094 1080.84 62.2989 1079.93 61.5161L1080.05 61.3953Z" fill="#010101"/>
</g>
<g filter="url(#filter17_f_1133_21631)">
<mask id="path-43-inside-2_1133_21631" fill="white">
<path d="M1117.24 98.584C1157.19 138.541 1124.39 236.127 1043.97 316.549C1037.58 322.934 1031.09 329.019 1024.52 334.791L915.588 225.855L1080.05 61.3953L1117.24 98.584ZM1024.45 334.857C1012.22 345.605 999.747 355.268 987.27 363.763L882.474 258.968L915.517 225.925L1024.45 334.857ZM987.186 363.82C975.845 371.538 964.502 378.29 953.338 384.018L855.381 286.061L882.404 259.038L987.186 363.82ZM953.245 384.066C942.935 389.351 932.779 393.762 922.92 397.25L833.556 307.886L855.311 286.132L953.245 384.066ZM922.816 397.287C914.374 400.268 906.15 402.575 898.234 404.172L817.752 323.69L833.486 307.957L922.816 397.287ZM898.116 404.196C889.059 406.016 880.405 406.906 872.291 406.827L803.453 337.989L817.682 323.761L898.116 404.196ZM872.149 406.826C864.809 406.744 857.913 405.867 851.558 404.158L794.422 347.021L803.383 338.06L872.149 406.826ZM851.367 404.107C841.46 401.412 832.879 396.692 826.003 389.817L788.814 352.628L794.351 347.091L851.367 404.107Z"/>
</mask>
<path d="M1117.24 98.584C1157.19 138.541 1124.39 236.127 1043.97 316.549C1037.58 322.934 1031.09 329.019 1024.52 334.791L915.588 225.855L1080.05 61.3953L1117.24 98.584ZM1024.45 334.857C1012.22 345.605 999.747 355.268 987.27 363.763L882.474 258.968L915.517 225.925L1024.45 334.857ZM987.186 363.82C975.845 371.538 964.502 378.29 953.338 384.018L855.381 286.061L882.404 259.038L987.186 363.82ZM953.245 384.066C942.935 389.351 932.779 393.762 922.92 397.25L833.556 307.886L855.311 286.132L953.245 384.066ZM922.816 397.287C914.374 400.268 906.15 402.575 898.234 404.172L817.752 323.69L833.486 307.957L922.816 397.287ZM898.116 404.196C889.059 406.016 880.405 406.906 872.291 406.827L803.453 337.989L817.682 323.761L898.116 404.196ZM872.149 406.826C864.809 406.744 857.913 405.867 851.558 404.158L794.422 347.021L803.383 338.06L872.149 406.826ZM851.367 404.107C841.46 401.412 832.879 396.692 826.003 389.817L788.814 352.628L794.351 347.091L851.367 404.107Z" fill="#010101"/>
<path d="M1043.97 316.549L1044.68 317.256L1043.97 316.549ZM1024.52 334.791L1023.82 335.499L1024.48 336.162L1025.18 335.542L1024.52 334.791ZM915.588 225.855L914.88 225.148L914.173 225.855L914.88 226.562L915.588 225.855ZM1080.05 61.3953L1080.75 60.6882L1080.05 59.981L1079.34 60.6882L1080.05 61.3953ZM1024.45 334.857L1025.11 335.608L1025.91 334.904L1025.16 334.15L1024.45 334.857ZM987.27 363.763L986.563 364.471L987.148 365.056L987.833 364.59L987.27 363.763ZM882.474 258.968L881.767 258.261L881.06 258.968L881.767 259.675L882.474 258.968ZM915.517 225.925L916.224 225.218L915.517 224.511L914.81 225.218L915.517 225.925ZM987.186 363.82L987.748 364.647L988.747 363.967L987.893 363.113L987.186 363.82ZM953.338 384.018L952.631 384.725L953.146 385.241L953.795 384.908L953.338 384.018ZM855.381 286.061L854.674 285.354L853.967 286.061L854.674 286.768L855.381 286.061ZM882.404 259.038L883.111 258.331L882.404 257.624L881.697 258.331L882.404 259.038ZM953.245 384.066L953.701 384.956L954.923 384.329L953.952 383.359L953.245 384.066ZM922.92 397.25L922.212 397.957L922.658 398.403L923.253 398.192L922.92 397.25ZM833.556 307.886L832.849 307.179L832.142 307.886L832.849 308.593L833.556 307.886ZM855.311 286.132L856.018 285.424L855.311 284.717L854.604 285.424L855.311 286.132ZM922.816 397.287L923.149 398.23L924.645 397.701L923.523 396.58L922.816 397.287ZM898.234 404.172L897.527 404.879L897.906 405.258L898.431 405.152L898.234 404.172ZM817.752 323.69L817.045 322.983L816.338 323.69L817.045 324.398L817.752 323.69ZM833.486 307.957L834.193 307.249L833.486 306.542L832.779 307.249L833.486 307.957ZM898.116 404.196L898.313 405.176L900.143 404.808L898.823 403.489L898.116 404.196ZM872.291 406.827L871.584 407.534L871.873 407.823L872.281 407.827L872.291 406.827ZM803.453 337.989L802.746 337.282L802.039 337.989L802.746 338.696L803.453 337.989ZM817.682 323.761L818.389 323.054L817.682 322.347L816.974 323.054L817.682 323.761ZM872.149 406.826L872.138 407.826L874.59 407.853L872.856 406.119L872.149 406.826ZM851.558 404.158L850.851 404.865L851.04 405.054L851.299 405.123L851.558 404.158ZM794.422 347.021L793.714 346.314L793.007 347.021L793.714 347.728L794.422 347.021ZM803.383 338.06L804.09 337.353L803.383 336.646L802.676 337.353L803.383 338.06ZM851.367 404.107L851.105 405.072L854.733 406.059L852.074 403.4L851.367 404.107ZM788.814 352.628L788.107 351.921L787.4 352.628L788.107 353.335L788.814 352.628ZM794.351 347.091L795.058 346.384L794.351 345.677L793.644 346.384L794.351 347.091ZM1117.24 98.584L1116.53 99.2911C1136.09 118.855 1138.02 152.74 1124.8 192.074C1111.6 231.342 1083.39 275.716 1043.26 315.842L1043.97 316.549L1044.68 317.256C1084.97 276.96 1113.37 232.33 1126.69 192.711C1139.99 153.157 1138.34 118.27 1117.94 97.8769L1117.24 98.584ZM1043.97 316.549L1043.26 315.842C1036.89 322.212 1030.41 328.282 1023.86 334.041L1024.52 334.791L1025.18 335.542C1031.76 329.756 1038.27 323.657 1044.68 317.256L1043.97 316.549ZM1024.52 334.791L1025.23 334.084L916.295 225.148L915.588 225.855L914.88 226.562L1023.82 335.499L1024.52 334.791ZM915.588 225.855L916.295 226.562L1080.75 62.1024L1080.05 61.3953L1079.34 60.6882L914.88 225.148L915.588 225.855ZM1080.05 61.3953L1079.34 62.1024L1116.53 99.2911L1117.24 98.584L1117.94 97.8769L1080.75 60.6882L1080.05 61.3953ZM1024.45 334.857L1023.79 334.106C1011.59 344.828 999.149 354.465 986.707 362.937L987.27 363.763L987.833 364.59C1000.34 356.07 1012.85 346.382 1025.11 335.608L1024.45 334.857ZM987.27 363.763L987.977 363.056L883.181 258.261L882.474 258.968L881.767 259.675L986.563 364.471L987.27 363.763ZM882.474 258.968L883.181 259.675L916.224 226.632L915.517 225.925L914.81 225.218L881.767 258.261L882.474 258.968ZM915.517 225.925L914.81 226.632L1023.74 335.564L1024.45 334.857L1025.16 334.15L916.224 225.218L915.517 225.925ZM987.186 363.82L986.623 362.993C975.314 370.689 964.006 377.42 952.882 383.129L953.338 384.018L953.795 384.908C964.997 379.16 976.375 372.386 987.748 364.647L987.186 363.82ZM953.338 384.018L954.045 383.311L856.088 285.354L855.381 286.061L854.674 286.768L952.631 384.725L953.338 384.018ZM855.381 286.061L856.088 286.768L883.111 259.746L882.404 259.038L881.697 258.331L854.674 285.354L855.381 286.061ZM882.404 259.038L881.697 259.746L986.478 364.527L987.186 363.82L987.893 363.113L883.111 258.331L882.404 259.038ZM953.245 384.066L952.789 383.176C942.515 388.443 932.4 392.835 922.586 396.307L922.92 397.25L923.253 398.192C933.158 394.688 943.355 390.26 953.701 384.956L953.245 384.066ZM922.92 397.25L923.627 396.542L834.263 307.179L833.556 307.886L832.849 308.593L922.212 397.957L922.92 397.25ZM833.556 307.886L834.263 308.593L856.018 286.839L855.311 286.132L854.604 285.424L832.849 307.179L833.556 307.886ZM855.311 286.132L854.604 286.839L952.538 384.773L953.245 384.066L953.952 383.359L856.018 285.424L855.311 286.132ZM922.816 397.287L922.483 396.344C914.08 399.312 905.901 401.605 898.036 403.192L898.234 404.172L898.431 405.152C906.399 403.545 914.667 401.225 923.149 398.23L922.816 397.287ZM898.234 404.172L898.941 403.465L818.459 322.983L817.752 323.69L817.045 324.398L897.527 404.879L898.234 404.172ZM817.752 323.69L818.459 324.398L834.193 308.664L833.486 307.957L832.779 307.249L817.045 322.983L817.752 323.69ZM833.486 307.957L832.779 308.664L922.109 397.994L922.816 397.287L923.523 396.58L834.193 307.249L833.486 307.957ZM898.116 404.196L897.919 403.215C888.92 405.024 880.336 405.905 872.301 405.827L872.291 406.827L872.281 407.827C880.475 407.907 889.198 407.008 898.313 405.176L898.116 404.196ZM872.291 406.827L872.998 406.12L804.16 337.282L803.453 337.989L802.746 338.696L871.584 407.534L872.291 406.827ZM803.453 337.989L804.16 338.696L818.389 324.468L817.682 323.761L816.974 323.054L802.746 337.282L803.453 337.989ZM817.682 323.761L816.974 324.468L897.409 404.903L898.116 404.196L898.823 403.489L818.389 323.054L817.682 323.761ZM872.149 406.826L872.16 405.826C864.893 405.745 858.081 404.876 851.818 403.192L851.558 404.158L851.299 405.123C857.745 406.857 864.726 407.743 872.138 407.826L872.149 406.826ZM851.558 404.158L852.266 403.451L795.129 346.314L794.422 347.021L793.714 347.728L850.851 404.865L851.558 404.158ZM794.422 347.021L795.129 347.728L804.09 338.767L803.383 338.06L802.676 337.353L793.714 346.314L794.422 347.021ZM803.383 338.06L802.676 338.767L871.442 407.533L872.149 406.826L872.856 406.119L804.09 337.353L803.383 338.06ZM851.367 404.107L851.63 403.142C841.87 400.488 833.448 395.847 826.71 389.11L826.003 389.817L825.296 390.524C832.309 397.537 841.05 402.337 851.105 405.072L851.367 404.107ZM826.003 389.817L826.71 389.11L789.522 351.921L788.814 352.628L788.107 353.335L825.296 390.524L826.003 389.817ZM788.814 352.628L789.522 353.335L795.058 347.798L794.351 347.091L793.644 346.384L788.107 351.921L788.814 352.628ZM794.351 347.091L793.644 347.798L850.66 404.814L851.367 404.107L852.074 403.4L795.058 346.384L794.351 347.091Z" fill="#E6E6E6" mask="url(#path-43-inside-2_1133_21631)"/>
</g>
<ellipse cx="935.983" cy="208.667" rx="205.945" ry="112.817" transform="rotate(-45 935.983 208.667)" fill="#010101"/>
<g filter="url(#filter18_f_1133_21631)">
<path d="M856.562 129.247C896.728 89.0812 941.992 61.6543 982.686 49.7654C1023.4 37.8706 1059.41 41.5562 1081.25 63.3958C1103.09 85.2355 1106.78 121.248 1094.88 161.963C1082.99 202.657 1055.57 247.922 1015.4 288.087C975.238 328.253 929.972 355.679 889.278 367.568C848.564 379.462 812.551 375.777 790.711 353.938C768.872 332.098 765.186 296.085 777.081 255.37C788.97 214.676 816.397 169.412 856.562 129.247Z" stroke="#E6E6E6"/>
</g>
<g filter="url(#filter19_f_1133_21631)">
<ellipse cx="935.983" cy="208.667" rx="205.945" ry="112.817" transform="rotate(-45 935.983 208.667)" fill="#010101"/>
<path d="M856.562 129.247C896.728 89.0812 941.992 61.6543 982.686 49.7654C1023.4 37.8706 1059.41 41.5562 1081.25 63.3958C1103.09 85.2355 1106.78 121.248 1094.88 161.963C1082.99 202.657 1055.57 247.922 1015.4 288.087C975.238 328.253 929.972 355.679 889.278 367.568C848.564 379.462 812.551 375.777 790.711 353.938C768.872 332.098 765.186 296.085 777.081 255.37C788.97 214.676 816.397 169.412 856.562 129.247Z" stroke="#E6E6E6"/>
</g>
<path d="M1081.61 63.0424C1125.66 107.1 1096.18 208.015 1015.76 288.441C935.33 368.867 834.415 398.35 790.357 354.292" stroke="url(#paint2_linear_1133_21631)"/>
<g filter="url(#filter20_f_1133_21631)">
<path d="M1081.61 63.0424C1125.66 107.1 1096.18 208.015 1015.76 288.441C935.33 368.867 834.415 398.35 790.357 354.292" stroke="url(#paint3_linear_1133_21631)"/>
</g>
<g filter="url(#filter21_f_1133_21631)">
<path d="M880.644 153.331C911.881 122.095 946.16 99.8501 976.313 89.1234C1006.5 78.383 1032.38 79.2431 1047.02 93.8902C1061.67 108.537 1062.53 134.411 1051.79 164.602C1041.07 194.755 1018.82 229.034 987.583 260.27C956.347 291.506 922.068 313.751 891.916 324.478C861.724 335.219 835.851 334.358 821.204 319.711C806.557 305.063 805.697 279.191 816.437 248.999C827.164 218.847 849.408 184.568 880.644 153.331Z" stroke="#E6E6E6"/>
<path d="M1050.96 98.1877C1025.54 72.773 954.48 102.63 892.235 164.876C829.989 227.121 800.132 298.184 825.547 323.598" stroke="#E6E6E6"/>
</g>
<g filter="url(#filter22_f_1133_21631)">
<path d="M880.644 153.33C911.881 122.094 946.16 99.8491 976.313 89.1224C1006.5 78.382 1032.38 79.2421 1047.02 93.8892C1061.67 108.536 1062.53 134.41 1051.79 164.601C1041.07 194.754 1018.82 229.033 987.583 260.269C956.347 291.505 922.068 313.75 891.916 324.477C861.724 335.218 835.851 334.357 821.204 319.71C806.557 305.062 805.697 279.19 816.437 248.998C827.164 218.846 849.408 184.567 880.644 153.33Z" stroke="#E6E6E6"/>
<path d="M1050.96 98.1867C1025.54 72.7721 954.48 102.629 892.235 164.875C829.989 227.12 800.132 298.183 825.547 323.597" stroke="#E6E6E6"/>
</g>
<path d="M880.644 153.33C911.881 122.094 946.16 99.8491 976.313 89.1224C1006.5 78.382 1032.38 79.2421 1047.02 93.8892C1061.67 108.536 1062.53 134.41 1051.79 164.601C1041.07 194.754 1018.82 229.033 987.583 260.269C956.347 291.505 922.068 313.75 891.916 324.477C861.724 335.218 835.851 334.357 821.204 319.71C806.557 305.062 805.697 279.19 816.437 248.998C827.164 218.846 849.408 184.567 880.644 153.33Z" stroke="#E6E6E6"/>
<path d="M1050.96 98.1867C1025.54 72.7721 954.48 102.629 892.235 164.875C829.989 227.12 800.132 298.183 825.547 323.597" stroke="#E6E6E6"/>
<g filter="url(#filter23_f_1133_21631)">
<path d="M370.236 98.584C410.193 138.541 377.39 236.127 296.968 316.549C216.546 396.971 118.96 429.774 79.0032 389.817L46.0329 356.846C90.5227 399.705 190.671 370.089 270.59 290.171C350.509 210.252 380.124 110.104 337.266 65.6137L370.236 98.584ZM41.9353 352.507C42.7181 353.419 43.5286 354.31 44.3667 355.18L41.8145 352.628L41.9353 352.507ZM333.047 61.3953L335.599 63.9475C334.729 63.1094 333.838 62.2989 332.926 61.5161L333.047 61.3953Z" fill="#010101"/>
</g>
<g filter="url(#filter24_f_1133_21631)">
<mask id="path-58-inside-3_1133_21631" fill="white">
<path d="M370.236 98.584C410.193 138.541 377.39 236.127 296.968 316.549C290.583 322.934 284.089 329.019 277.524 334.791L168.588 225.855L333.047 61.3953L370.236 98.584ZM277.449 334.857C265.22 345.605 252.747 355.268 240.27 363.763L135.474 258.968L168.517 225.925L277.449 334.857ZM240.186 363.82C228.845 371.538 217.502 378.29 206.338 384.018L108.381 286.061L135.404 259.038L240.186 363.82ZM206.245 384.066C195.935 389.351 185.779 393.762 175.92 397.25L86.5562 307.886L108.311 286.132L206.245 384.066ZM175.816 397.287C167.374 400.268 159.15 402.575 151.234 404.172L70.752 323.69L86.4858 307.957L175.816 397.287ZM151.116 404.196C142.059 406.016 133.405 406.906 125.291 406.827L56.4531 337.989L70.6815 323.761L151.116 404.196ZM125.149 406.826C117.809 406.744 110.913 405.867 104.558 404.158L47.4216 347.021L56.3826 338.06L125.149 406.826ZM104.367 404.107C94.4603 401.412 85.8785 396.692 79.0032 389.817L41.8145 352.628L47.3512 347.091L104.367 404.107Z"/>
</mask>
<path d="M370.236 98.584C410.193 138.541 377.39 236.127 296.968 316.549C290.583 322.934 284.089 329.019 277.524 334.791L168.588 225.855L333.047 61.3953L370.236 98.584ZM277.449 334.857C265.22 345.605 252.747 355.268 240.27 363.763L135.474 258.968L168.517 225.925L277.449 334.857ZM240.186 363.82C228.845 371.538 217.502 378.29 206.338 384.018L108.381 286.061L135.404 259.038L240.186 363.82ZM206.245 384.066C195.935 389.351 185.779 393.762 175.92 397.25L86.5562 307.886L108.311 286.132L206.245 384.066ZM175.816 397.287C167.374 400.268 159.15 402.575 151.234 404.172L70.752 323.69L86.4858 307.957L175.816 397.287ZM151.116 404.196C142.059 406.016 133.405 406.906 125.291 406.827L56.4531 337.989L70.6815 323.761L151.116 404.196ZM125.149 406.826C117.809 406.744 110.913 405.867 104.558 404.158L47.4216 347.021L56.3826 338.06L125.149 406.826ZM104.367 404.107C94.4603 401.412 85.8785 396.692 79.0032 389.817L41.8145 352.628L47.3512 347.091L104.367 404.107Z" fill="#010101"/>
<path d="M296.968 316.549L297.675 317.256L296.968 316.549ZM277.524 334.791L276.817 335.499L277.48 336.162L278.184 335.542L277.524 334.791ZM168.588 225.855L167.88 225.148L167.173 225.855L167.88 226.562L168.588 225.855ZM333.047 61.3953L333.754 60.6882L333.047 59.981L332.34 60.6882L333.047 61.3953ZM277.449 334.857L278.109 335.608L278.91 334.904L278.156 334.15L277.449 334.857ZM240.27 363.763L239.563 364.471L240.148 365.056L240.833 364.59L240.27 363.763ZM135.474 258.968L134.767 258.261L134.06 258.968L134.767 259.675L135.474 258.968ZM168.517 225.925L169.224 225.218L168.517 224.511L167.81 225.218L168.517 225.925ZM240.186 363.82L240.748 364.647L241.747 363.967L240.893 363.113L240.186 363.82ZM206.338 384.018L205.631 384.725L206.146 385.241L206.795 384.908L206.338 384.018ZM108.381 286.061L107.674 285.354L106.967 286.061L107.674 286.768L108.381 286.061ZM135.404 259.038L136.111 258.331L135.404 257.624L134.697 258.331L135.404 259.038ZM206.245 384.066L206.701 384.956L207.923 384.329L206.952 383.359L206.245 384.066ZM175.92 397.25L175.212 397.957L175.658 398.403L176.253 398.192L175.92 397.25ZM86.5562 307.886L85.8491 307.179L85.142 307.886L85.8491 308.593L86.5562 307.886ZM108.311 286.132L109.018 285.424L108.311 284.717L107.604 285.424L108.311 286.132ZM175.816 397.287L176.149 398.23L177.645 397.701L176.523 396.58L175.816 397.287ZM151.234 404.172L150.527 404.879L150.906 405.258L151.431 405.152L151.234 404.172ZM70.752 323.69L70.0449 322.983L69.3378 323.69L70.0449 324.398L70.752 323.69ZM86.4858 307.957L87.1929 307.249L86.4858 306.542L85.7787 307.249L86.4858 307.957ZM151.116 404.196L151.313 405.176L153.143 404.808L151.823 403.489L151.116 404.196ZM125.291 406.827L124.584 407.534L124.873 407.823L125.281 407.827L125.291 406.827ZM56.4531 337.989L55.746 337.282L55.0389 337.989L55.746 338.696L56.4531 337.989ZM70.6815 323.761L71.3886 323.054L70.6815 322.347L69.9744 323.054L70.6815 323.761ZM125.149 406.826L125.138 407.826L127.59 407.853L125.856 406.119L125.149 406.826ZM104.558 404.158L103.851 404.865L104.04 405.054L104.299 405.123L104.558 404.158ZM47.4216 347.021L46.7145 346.314L46.0074 347.021L46.7145 347.728L47.4216 347.021ZM56.3826 338.06L57.0898 337.353L56.3826 336.646L55.6755 337.353L56.3826 338.06ZM104.367 404.107L104.105 405.072L107.733 406.059L105.074 403.4L104.367 404.107ZM41.8145 352.628L41.1073 351.921L40.4002 352.628L41.1073 353.335L41.8145 352.628ZM47.3512 347.091L48.0583 346.384L47.3512 345.677L46.644 346.384L47.3512 347.091ZM370.236 98.584L369.529 99.2911C389.093 118.855 391.018 152.74 377.796 192.074C364.596 231.342 336.387 275.716 296.261 315.842L296.968 316.549L297.675 317.256C337.971 276.96 366.374 232.33 379.692 192.711C392.988 153.157 391.336 118.27 370.943 97.8769L370.236 98.584ZM296.968 316.549L296.261 315.842C289.891 322.212 283.412 328.282 276.864 334.041L277.524 334.791L278.184 335.542C284.765 329.756 291.275 323.657 297.675 317.256L296.968 316.549ZM277.524 334.791L278.231 334.084L169.295 225.148L168.588 225.855L167.88 226.562L276.817 335.499L277.524 334.791ZM168.588 225.855L169.295 226.562L333.754 62.1024L333.047 61.3953L332.34 60.6882L167.88 225.148L168.588 225.855ZM333.047 61.3953L332.34 62.1024L369.529 99.2911L370.236 98.584L370.943 97.8769L333.754 60.6882L333.047 61.3953ZM277.449 334.857L276.789 334.106C264.59 344.828 252.149 354.465 239.707 362.937L240.27 363.763L240.833 364.59C253.345 356.07 265.85 346.382 278.109 335.608L277.449 334.857ZM240.27 363.763L240.977 363.056L136.181 258.261L135.474 258.968L134.767 259.675L239.563 364.471L240.27 363.763ZM135.474 258.968L136.181 259.675L169.224 226.632L168.517 225.925L167.81 225.218L134.767 258.261L135.474 258.968ZM168.517 225.925L167.81 226.632L276.742 335.564L277.449 334.857L278.156 334.15L169.224 225.218L168.517 225.925ZM240.186 363.82L239.623 362.993C228.314 370.689 217.006 377.42 205.882 383.129L206.338 384.018L206.795 384.908C217.997 379.16 229.375 372.386 240.748 364.647L240.186 363.82ZM206.338 384.018L207.045 383.311L109.088 285.354L108.381 286.061L107.674 286.768L205.631 384.725L206.338 384.018ZM108.381 286.061L109.088 286.768L136.111 259.746L135.404 259.038L134.697 258.331L107.674 285.354L108.381 286.061ZM135.404 259.038L134.697 259.746L239.478 364.527L240.186 363.82L240.893 363.113L136.111 258.331L135.404 259.038ZM206.245 384.066L205.789 383.176C195.515 388.443 185.4 392.835 175.586 396.307L175.92 397.25L176.253 398.192C186.158 394.688 196.355 390.26 206.701 384.956L206.245 384.066ZM175.92 397.25L176.627 396.542L87.2633 307.179L86.5562 307.886L85.8491 308.593L175.212 397.957L175.92 397.25ZM86.5562 307.886L87.2633 308.593L109.018 286.839L108.311 286.132L107.604 285.424L85.8491 307.179L86.5562 307.886ZM108.311 286.132L107.604 286.839L205.538 384.773L206.245 384.066L206.952 383.359L109.018 285.424L108.311 286.132ZM175.816 397.287L175.483 396.344C167.08 399.312 158.901 401.605 151.036 403.192L151.234 404.172L151.431 405.152C159.399 403.545 167.667 401.225 176.149 398.23L175.816 397.287ZM151.234 404.172L151.941 403.465L71.4591 322.983L70.752 323.69L70.0449 324.398L150.527 404.879L151.234 404.172ZM70.752 323.69L71.4591 324.398L87.1929 308.664L86.4858 307.957L85.7787 307.249L70.0449 322.983L70.752 323.69ZM86.4858 307.957L85.7787 308.664L175.109 397.994L175.816 397.287L176.523 396.58L87.1929 307.249L86.4858 307.957ZM151.116 404.196L150.919 403.215C141.92 405.024 133.336 405.905 125.301 405.827L125.291 406.827L125.281 407.827C133.475 407.907 142.198 407.008 151.313 405.176L151.116 404.196ZM125.291 406.827L125.998 406.12L57.1602 337.282L56.4531 337.989L55.746 338.696L124.584 407.534L125.291 406.827ZM56.4531 337.989L57.1602 338.696L71.3886 324.468L70.6815 323.761L69.9744 323.054L55.746 337.282L56.4531 337.989ZM70.6815 323.761L69.9744 324.468L150.409 404.903L151.116 404.196L151.823 403.489L71.3886 323.054L70.6815 323.761ZM125.149 406.826L125.16 405.826C117.893 405.745 111.081 404.876 104.818 403.192L104.558 404.158L104.299 405.123C110.745 406.857 117.726 407.743 125.138 407.826L125.149 406.826ZM104.558 404.158L105.266 403.451L48.1287 346.314L47.4216 347.021L46.7145 347.728L103.851 404.865L104.558 404.158ZM47.4216 347.021L48.1287 347.728L57.0898 338.767L56.3826 338.06L55.6755 337.353L46.7145 346.314L47.4216 347.021ZM56.3826 338.06L55.6755 338.767L124.442 407.533L125.149 406.826L125.856 406.119L57.0898 337.353L56.3826 338.06ZM104.367 404.107L104.63 403.142C94.8705 400.488 86.4482 395.847 79.7103 389.11L79.0032 389.817L78.296 390.524C85.3088 397.537 94.0502 402.337 104.105 405.072L104.367 404.107ZM79.0032 389.817L79.7103 389.11L42.5216 351.921L41.8145 352.628L41.1073 353.335L78.296 390.524L79.0032 389.817ZM41.8145 352.628L42.5216 353.335L48.0583 347.798L47.3512 347.091L46.644 346.384L41.1073 351.921L41.8145 352.628ZM47.3512 347.091L46.644 347.798L103.66 404.814L104.367 404.107L105.074 403.4L48.0583 346.384L47.3512 347.091Z" fill="#E6E6E6" mask="url(#path-58-inside-3_1133_21631)"/>
</g>
<ellipse cx="188.983" cy="208.667" rx="205.945" ry="112.817" transform="rotate(-45 188.983 208.667)" fill="#010101"/>
<g filter="url(#filter25_f_1133_21631)">
<path d="M109.562 129.247C149.728 89.0812 194.992 61.6543 235.686 49.7654C276.4 37.8706 312.414 41.5562 334.254 63.3958C356.093 85.2355 359.778 121.248 347.883 161.963C335.994 202.657 308.568 247.922 268.403 288.087C228.238 328.253 182.972 355.679 142.278 367.568C101.564 379.462 65.5511 375.777 43.7115 353.938C21.8718 332.098 18.1863 296.085 30.081 255.37C41.9699 214.676 69.3968 169.412 109.562 129.247Z" stroke="#E6E6E6"/>
</g>
<g filter="url(#filter26_f_1133_21631)">
<ellipse cx="188.983" cy="208.667" rx="205.945" ry="112.817" transform="rotate(-45 188.983 208.667)" fill="#010101"/>
<path d="M109.562 129.247C149.728 89.0812 194.992 61.6543 235.686 49.7654C276.4 37.8706 312.414 41.5562 334.254 63.3958C356.093 85.2355 359.778 121.248 347.883 161.963C335.994 202.657 308.568 247.922 268.403 288.087C228.238 328.253 182.972 355.679 142.278 367.568C101.564 379.462 65.5511 375.777 43.7115 353.938C21.8718 332.098 18.1863 296.085 30.081 255.37C41.9699 214.676 69.3968 169.412 109.562 129.247Z" stroke="#E6E6E6"/>
</g>
<path d="M334.607 63.0424C378.665 107.1 349.182 208.015 268.756 288.441C188.33 368.867 87.4153 398.35 43.3574 354.292" stroke="url(#paint4_linear_1133_21631)"/>
<g filter="url(#filter27_f_1133_21631)">
<path d="M334.607 63.0424C378.665 107.1 349.182 208.015 268.756 288.441C188.33 368.867 87.4153 398.35 43.3574 354.292" stroke="url(#paint5_linear_1133_21631)"/>
</g>
<g filter="url(#filter28_f_1133_21631)">
<path d="M133.644 153.331C164.881 122.095 199.16 99.8501 229.313 89.1234C259.505 78.383 285.377 79.2431 300.024 93.8902C314.672 108.537 315.532 134.411 304.792 164.602C294.065 194.755 271.82 229.034 240.583 260.27C209.347 291.506 175.068 313.751 144.916 324.478C114.724 335.219 88.8512 334.358 74.2039 319.711C59.5568 305.063 58.6966 279.191 69.4371 248.999C80.1637 218.847 102.408 184.568 133.644 153.331Z" stroke="#E6E6E6"/>
<path d="M303.957 98.1877C278.543 72.773 207.48 102.63 145.235 164.876C82.9892 227.121 53.1319 298.184 78.5466 323.598" stroke="#E6E6E6"/>
</g>
<g filter="url(#filter29_f_1133_21631)">
<path d="M133.644 153.33C164.881 122.094 199.16 99.8491 229.313 89.1224C259.505 78.382 285.377 79.2421 300.024 93.8892C314.672 108.536 315.532 134.41 304.792 164.601C294.065 194.754 271.82 229.033 240.583 260.269C209.347 291.505 175.068 313.75 144.916 324.477C114.724 335.218 88.8512 334.357 74.2039 319.71C59.5568 305.062 58.6966 279.19 69.4371 248.998C80.1637 218.846 102.408 184.567 133.644 153.33Z" stroke="#E6E6E6"/>
<path d="M303.957 98.1867C278.543 72.7721 207.48 102.629 145.235 164.875C82.9892 227.12 53.1319 298.183 78.5466 323.597" stroke="#E6E6E6"/>
</g>
<path d="M133.644 153.33C164.881 122.094 199.16 99.8491 229.313 89.1224C259.505 78.382 285.377 79.2421 300.024 93.8892C314.672 108.536 315.532 134.41 304.792 164.601C294.065 194.754 271.82 229.033 240.583 260.269C209.347 291.505 175.068 313.75 144.916 324.477C114.724 335.218 88.8512 334.357 74.2039 319.71C59.5568 305.062 58.6966 279.19 69.4371 248.998C80.1637 218.846 102.408 184.567 133.644 153.33Z" stroke="#E6E6E6"/>
<path d="M303.957 98.1867C278.543 72.7721 207.48 102.629 145.235 164.875C82.9892 227.12 53.1319 298.183 78.5466 323.597" stroke="#E6E6E6"/>
</g>
<defs>
<filter id="filter0_f_1133_21631" x="371" y="8" width="411" height="411" filterUnits="userSpaceOnUse" color-interpolation-filters="sRGB">
<feFlood flood-opacity="0" result="BackgroundImageFix"/>
<feBlend mode="normal" in="SourceGraphic" in2="BackgroundImageFix" result="shape"/>
<feGaussianBlur stdDeviation="5" result="effect1_foregroundBlur_1133_21631"/>
</filter>
<filter id="filter1_f_1133_21631" x="376" y="13" width="401" height="401" filterUnits="userSpaceOnUse" color-interpolation-filters="sRGB">
<feFlood flood-opacity="0" result="BackgroundImageFix"/>
<feBlend mode="normal" in="SourceGraphic" in2="BackgroundImageFix" result="shape"/>
<feGaussianBlur stdDeviation="2.5" result="effect1_foregroundBlur_1133_21631"/>
</filter>
<filter id="filter2_f_1133_21631" x="417" y="54" width="319" height="319" filterUnits="userSpaceOnUse" color-interpolation-filters="sRGB">
<feFlood flood-opacity="0" result="BackgroundImageFix"/>
<feBlend mode="normal" in="SourceGraphic" in2="BackgroundImageFix" result="shape"/>
<feGaussianBlur stdDeviation="5" result="effect1_foregroundBlur_1133_21631"/>
</filter>
<filter id="filter3_f_1133_21631" x="422" y="59" width="309" height="309" filterUnits="userSpaceOnUse" color-interpolation-filters="sRGB">
<feFlood flood-opacity="0" result="BackgroundImageFix"/>
<feBlend mode="normal" in="SourceGraphic" in2="BackgroundImageFix" result="shape"/>
<feGaussianBlur stdDeviation="2.5" result="effect1_foregroundBlur_1133_21631"/>
</filter>
<filter id="filter4_f_1133_21631" x="1119" y="8" width="411" height="411" filterUnits="userSpaceOnUse" color-interpolation-filters="sRGB">
<feFlood flood-opacity="0" result="BackgroundImageFix"/>
<feBlend mode="normal" in="SourceGraphic" in2="BackgroundImageFix" result="shape"/>
<feGaussianBlur stdDeviation="5" result="effect1_foregroundBlur_1133_21631"/>
</filter>
<filter id="filter5_f_1133_21631" x="1263.61" y="153.072" width="120.543" height="120.544" filterUnits="userSpaceOnUse" color-interpolation-filters="sRGB">
<feFlood flood-opacity="0" result="BackgroundImageFix"/>
<feBlend mode="normal" in="SourceGraphic" in2="BackgroundImageFix" result="shape"/>
<feGaussianBlur stdDeviation="5" result="effect1_foregroundBlur_1133_21631"/>
</filter>
<filter id="filter6_f_1133_21631" x="1268.61" y="158.072" width="110.543" height="110.544" filterUnits="userSpaceOnUse" color-interpolation-filters="sRGB">
<feFlood flood-opacity="0" result="BackgroundImageFix"/>
<feBlend mode="normal" in="SourceGraphic" in2="BackgroundImageFix" result="shape"/>
<feGaussianBlur stdDeviation="2.5" result="effect1_foregroundBlur_1133_21631"/>
</filter>
<filter id="filter7_f_1133_21631" x="1165" y="54" width="319" height="319" filterUnits="userSpaceOnUse" color-interpolation-filters="sRGB">
<feFlood flood-opacity="0" result="BackgroundImageFix"/>
<feBlend mode="normal" in="SourceGraphic" in2="BackgroundImageFix" result="shape"/>
<feGaussianBlur stdDeviation="5" result="effect1_foregroundBlur_1133_21631"/>
</filter>
<filter id="filter8_f_1133_21631" x="1170" y="59" width="309" height="309" filterUnits="userSpaceOnUse" color-interpolation-filters="sRGB">
<feFlood flood-opacity="0" result="BackgroundImageFix"/>
<feBlend mode="normal" in="SourceGraphic" in2="BackgroundImageFix" result="shape"/>
<feGaussianBlur stdDeviation="2.5" result="effect1_foregroundBlur_1133_21631"/>
</filter>
<filter id="filter9_f_1133_21631" x="1521.81" y="51.3955" width="365.439" height="365.439" filterUnits="userSpaceOnUse" color-interpolation-filters="sRGB">
<feFlood flood-opacity="0" result="BackgroundImageFix"/>
<feBlend mode="normal" in="SourceGraphic" in2="BackgroundImageFix" result="shape"/>
<feGaussianBlur stdDeviation="5" result="effect1_foregroundBlur_1133_21631"/>
</filter>
<filter id="filter10_f_1133_21631" x="1530.31" y="59.8955" width="348.439" height="348.437" filterUnits="userSpaceOnUse" color-interpolation-filters="sRGB">
<feFlood flood-opacity="0" result="BackgroundImageFix"/>
<feBlend mode="normal" in="SourceGraphic" in2="BackgroundImageFix" result="shape"/>
<feGaussianBlur stdDeviation="0.75" result="effect1_foregroundBlur_1133_21631"/>
</filter>
<filter id="filter11_f_1133_21631" x="1502.91" y="32.5918" width="352.148" height="352.149" filterUnits="userSpaceOnUse" color-interpolation-filters="sRGB">
<feFlood flood-opacity="0" result="BackgroundImageFix"/>
<feBlend mode="normal" in="SourceGraphic" in2="BackgroundImageFix" result="shape"/>
<feGaussianBlur stdDeviation="5" result="effect1_foregroundBlur_1133_21631"/>
</filter>
<filter id="filter12_f_1133_21631" x="1507.91" y="37.5918" width="342.148" height="342.149" filterUnits="userSpaceOnUse" color-interpolation-filters="sRGB">
<feFlood flood-opacity="0" result="BackgroundImageFix"/>
<feBlend mode="normal" in="SourceGraphic" in2="BackgroundImageFix" result="shape"/>
<feGaussianBlur stdDeviation="2.5" result="effect1_foregroundBlur_1133_21631"/>
</filter>
<filter id="filter13_f_1133_21631" x="1528" y="57.6885" width="322.553" height="322.553" filterUnits="userSpaceOnUse" color-interpolation-filters="sRGB">
<feFlood flood-opacity="0" result="BackgroundImageFix"/>
<feBlend mode="normal" in="SourceGraphic" in2="BackgroundImageFix" result="shape"/>
<feGaussianBlur stdDeviation="2.5" result="effect1_foregroundBlur_1133_21631"/>
</filter>
<filter id="filter14_f_1133_21631" x="1541.68" y="71.3691" width="270.861" height="270.862" filterUnits="userSpaceOnUse" color-interpolation-filters="sRGB">
<feFlood flood-opacity="0" result="BackgroundImageFix"/>
<feBlend mode="normal" in="SourceGraphic" in2="BackgroundImageFix" result="shape"/>
<feGaussianBlur stdDeviation="5" result="effect1_foregroundBlur_1133_21631"/>
</filter>
<filter id="filter15_f_1133_21631" x="1546.68" y="76.3682" width="260.861" height="260.862" filterUnits="userSpaceOnUse" color-interpolation-filters="sRGB">
<feFlood flood-opacity="0" result="BackgroundImageFix"/>
<feBlend mode="normal" in="SourceGraphic" in2="BackgroundImageFix" result="shape"/>
<feGaussianBlur stdDeviation="2.5" result="effect1_foregroundBlur_1133_21631"/>
</filter>
<filter id="filter16_f_1133_21631" x="778.814" y="51.3955" width="365.439" height="365.439" filterUnits="userSpaceOnUse" color-interpolation-filters="sRGB">
<feFlood flood-opacity="0" result="BackgroundImageFix"/>
<feBlend mode="normal" in="SourceGraphic" in2="BackgroundImageFix" result="shape"/>
<feGaussianBlur stdDeviation="5" result="effect1_foregroundBlur_1133_21631"/>
</filter>
<filter id="filter17_f_1133_21631" x="787.314" y="59.8955" width="348.439" height="348.437" filterUnits="userSpaceOnUse" color-interpolation-filters="sRGB">
<feFlood flood-opacity="0" result="BackgroundImageFix"/>
<feBlend mode="normal" in="SourceGraphic" in2="BackgroundImageFix" result="shape"/>
<feGaussianBlur stdDeviation="0.75" result="effect1_foregroundBlur_1133_21631"/>
</filter>
<filter id="filter18_f_1133_21631" x="759.908" y="32.5918" width="352.148" height="352.149" filterUnits="userSpaceOnUse" color-interpolation-filters="sRGB">
<feFlood flood-opacity="0" result="BackgroundImageFix"/>
<feBlend mode="normal" in="SourceGraphic" in2="BackgroundImageFix" result="shape"/>
<feGaussianBlur stdDeviation="5" result="effect1_foregroundBlur_1133_21631"/>
</filter>
<filter id="filter19_f_1133_21631" x="764.908" y="37.5918" width="342.148" height="342.149" filterUnits="userSpaceOnUse" color-interpolation-filters="sRGB">
<feFlood flood-opacity="0" result="BackgroundImageFix"/>
<feBlend mode="normal" in="SourceGraphic" in2="BackgroundImageFix" result="shape"/>
<feGaussianBlur stdDeviation="2.5" result="effect1_foregroundBlur_1133_21631"/>
</filter>
<filter id="filter20_f_1133_21631" x="785.004" y="57.6885" width="322.553" height="322.553" filterUnits="userSpaceOnUse" color-interpolation-filters="sRGB">
<feFlood flood-opacity="0" result="BackgroundImageFix"/>
<feBlend mode="normal" in="SourceGraphic" in2="BackgroundImageFix" result="shape"/>
<feGaussianBlur stdDeviation="2.5" result="effect1_foregroundBlur_1133_21631"/>
</filter>
<filter id="filter21_f_1133_21631" x="798.684" y="71.3691" width="270.861" height="270.862" filterUnits="userSpaceOnUse" color-interpolation-filters="sRGB">
<feFlood flood-opacity="0" result="BackgroundImageFix"/>
<feBlend mode="normal" in="SourceGraphic" in2="BackgroundImageFix" result="shape"/>
<feGaussianBlur stdDeviation="5" result="effect1_foregroundBlur_1133_21631"/>
</filter>
<filter id="filter22_f_1133_21631" x="803.684" y="76.3682" width="260.861" height="260.862" filterUnits="userSpaceOnUse" color-interpolation-filters="sRGB">
<feFlood flood-opacity="0" result="BackgroundImageFix"/>
<feBlend mode="normal" in="SourceGraphic" in2="BackgroundImageFix" result="shape"/>
<feGaussianBlur stdDeviation="2.5" result="effect1_foregroundBlur_1133_21631"/>
</filter>
<filter id="filter23_f_1133_21631" x="31.8145" y="51.3955" width="365.439" height="365.439" filterUnits="userSpaceOnUse" color-interpolation-filters="sRGB">
<feFlood flood-opacity="0" result="BackgroundImageFix"/>
<feBlend mode="normal" in="SourceGraphic" in2="BackgroundImageFix" result="shape"/>
<feGaussianBlur stdDeviation="5" result="effect1_foregroundBlur_1133_21631"/>
</filter>
<filter id="filter24_f_1133_21631" x="40.3145" y="59.8955" width="348.439" height="348.437" filterUnits="userSpaceOnUse" color-interpolation-filters="sRGB">
<feFlood flood-opacity="0" result="BackgroundImageFix"/>
<feBlend mode="normal" in="SourceGraphic" in2="BackgroundImageFix" result="shape"/>
<feGaussianBlur stdDeviation="0.75" result="effect1_foregroundBlur_1133_21631"/>
</filter>
<filter id="filter25_f_1133_21631" x="12.9082" y="32.5918" width="352.148" height="352.149" filterUnits="userSpaceOnUse" color-interpolation-filters="sRGB">
<feFlood flood-opacity="0" result="BackgroundImageFix"/>
<feBlend mode="normal" in="SourceGraphic" in2="BackgroundImageFix" result="shape"/>
<feGaussianBlur stdDeviation="5" result="effect1_foregroundBlur_1133_21631"/>
</filter>
<filter id="filter26_f_1133_21631" x="17.9082" y="37.5918" width="342.148" height="342.149" filterUnits="userSpaceOnUse" color-interpolation-filters="sRGB">
<feFlood flood-opacity="0" result="BackgroundImageFix"/>
<feBlend mode="normal" in="SourceGraphic" in2="BackgroundImageFix" result="shape"/>
<feGaussianBlur stdDeviation="2.5" result="effect1_foregroundBlur_1133_21631"/>
</filter>
<filter id="filter27_f_1133_21631" x="38.0039" y="57.6885" width="322.553" height="322.553" filterUnits="userSpaceOnUse" color-interpolation-filters="sRGB">
<feFlood flood-opacity="0" result="BackgroundImageFix"/>
<feBlend mode="normal" in="SourceGraphic" in2="BackgroundImageFix" result="shape"/>
<feGaussianBlur stdDeviation="2.5" result="effect1_foregroundBlur_1133_21631"/>
</filter>
<filter id="filter28_f_1133_21631" x="51.6836" y="71.3691" width="270.861" height="270.862" filterUnits="userSpaceOnUse" color-interpolation-filters="sRGB">
<feFlood flood-opacity="0" result="BackgroundImageFix"/>
<feBlend mode="normal" in="SourceGraphic" in2="BackgroundImageFix" result="shape"/>
<feGaussianBlur stdDeviation="5" result="effect1_foregroundBlur_1133_21631"/>
</filter>
<filter id="filter29_f_1133_21631" x="56.6836" y="76.3682" width="260.861" height="260.862" filterUnits="userSpaceOnUse" color-interpolation-filters="sRGB">
<feFlood flood-opacity="0" result="BackgroundImageFix"/>
<feBlend mode="normal" in="SourceGraphic" in2="BackgroundImageFix" result="shape"/>
<feGaussianBlur stdDeviation="2.5" result="effect1_foregroundBlur_1133_21631"/>
</filter>
<linearGradient id="paint0_linear_1133_21631" x1="1533" y1="355.001" x2="1826" y2="63.0006" gradientUnits="userSpaceOnUse">
<stop stop-color="#808080" stop-opacity="0"/>
<stop offset="0.0865329" stop-color="#E6E6E6"/>
<stop offset="0.913467" stop-color="#E6E6E6"/>
<stop offset="1" stop-color="#808080" stop-opacity="0"/>
</linearGradient>
<linearGradient id="paint1_linear_1133_21631" x1="1533" y1="355.001" x2="1826" y2="63.0006" gradientUnits="userSpaceOnUse">
<stop stop-color="#808080" stop-opacity="0"/>
<stop offset="0.55" stop-color="#E6E6E6"/>
<stop offset="1" stop-color="#808080" stop-opacity="0"/>
</linearGradient>
<linearGradient id="paint2_linear_1133_21631" x1="790" y1="355.001" x2="1083" y2="63.0006" gradientUnits="userSpaceOnUse">
<stop stop-color="#808080" stop-opacity="0"/>
<stop offset="0.0865329" stop-color="#E6E6E6"/>
<stop offset="0.913467" stop-color="#E6E6E6"/>
<stop offset="1" stop-color="#808080" stop-opacity="0"/>
</linearGradient>
<linearGradient id="paint3_linear_1133_21631" x1="790" y1="355.001" x2="1083" y2="63.0006" gradientUnits="userSpaceOnUse">
<stop stop-color="#808080" stop-opacity="0"/>
<stop offset="0.55" stop-color="#E6E6E6"/>
<stop offset="1" stop-color="#808080" stop-opacity="0"/>
</linearGradient>
<linearGradient id="paint4_linear_1133_21631" x1="42.9998" y1="355.001" x2="336" y2="63.0006" gradientUnits="userSpaceOnUse">
<stop stop-color="#808080" stop-opacity="0"/>
<stop offset="0.0865329" stop-color="#E6E6E6"/>
<stop offset="0.913467" stop-color="#E6E6E6"/>
<stop offset="1" stop-color="#808080" stop-opacity="0"/>
</linearGradient>
<linearGradient id="paint5_linear_1133_21631" x1="42.9998" y1="355.001" x2="336" y2="63.0006" gradientUnits="userSpaceOnUse">
<stop stop-color="#808080" stop-opacity="0"/>
<stop offset="0.55" stop-color="#E6E6E6"/>
<stop offset="1" stop-color="#808080" stop-opacity="0"/>
</linearGradient>
<clipPath id="clip0_1133_21631">
<rect width="1900" height="440" fill="white"/>
</clipPath>
<clipPath id="clip1_1133_21631">
<rect width="81.8914" height="81.8914" fill="white" transform="translate(1273.61 184.606) rotate(-15.2456)"/>
</clipPath>
<clipPath id="clip2_1133_21631">
<rect width="81.8914" height="81.8914" fill="white" transform="translate(1273.61 184.606) rotate(-15.2456)"/>
</clipPath>
<clipPath id="clip3_1133_21631">
<rect width="81.8914" height="81.8914" fill="white" transform="translate(1273.61 184.606) rotate(-15.2456)"/>
</clipPath>
</defs>
</svg>
