<svg width="116" height="38" viewBox="0 0 116 38" fill="none" xmlns="http://www.w3.org/2000/svg">
<path d="M112.998 13.6831L113 13.6821L113 13.6733C96.4862 16.0656 77.5795 5.04965 77.4951 5.00045C57.6922 13.7161 37.9258 13.0044 37.9258 13.0044L37.9258 9.3149C37.9258 8.3506 37.1345 7.56002 36.1699 7.56002C35.2054 7.56014 34.415 8.35067 34.415 9.3149L34.415 23.1469C34.415 23.3421 34.4491 23.5297 34.5088 23.7055C33.3671 24.5059 31.5959 25.3003 28.917 26.0083C21.3811 27.9984 15.2929 22.1384 13.0547 19.5727L34.4141 21.0649L34.4141 11.4008L11.4326 13.0083C10.5477 12.0218 9.26277 11.4008 7.83301 11.4008C5.16383 11.4011 3.00008 13.5644 3 16.2329C3 18.9014 5.16377 21.0647 7.83301 21.0649C8.80357 21.0649 9.70763 20.7789 10.4648 20.2866C11.5382 23.0169 15.4576 30.9582 25.0752 32.0463C34.0359 33.06 36.8141 26.9859 37.6191 24.1333C37.812 23.8516 37.9258 23.5117 37.9258 23.1469L37.9258 21.0698C45.616 21.0698 61.0863 26.2708 84.4258 27.4038C88.4422 27.5987 85.9904 27.9992 89 27.4038C89.0881 27.3871 89.8826 25.462 90.7441 23.353C92.1382 23.2435 93.4533 23.0849 94.6934 22.8891C95.3027 24.7943 95.8588 26.5215 95.9219 26.5132C96.1696 26.4552 96.4177 26.3967 96.6602 26.3335C96.839 26.2852 96.3017 24.3419 96.4756 24.2944C96.6548 24.2417 97.5458 26.0961 97.7197 26.0434C109.69 22.5836 112.901 13.952 112.998 13.6831Z" fill="#010101"/>
</svg>
