<svg width="110" height="120" viewBox="0 0 110 120" fill="none" xmlns="http://www.w3.org/2000/svg">
<path d="M102.949 58.5247C99.7941 57.9043 88.2908 56.1959 77.2059 61.474C64.1965 67.663 43.7199 76.693 27.5701 77.722C27.5701 77.722 33.9345 44.3693 16.4754 20.5093C16.4754 20.5093 26.7628 25.2656 39.92 20.3124C53.0771 15.3592 76.9057 4.27117 97.1213 7.61924C97.1213 7.61924 97.0819 7.67832 97.0179 7.7768C96.4371 8.16576 95.871 8.55965 95.4133 9.10618C94.5617 10.1204 94.4682 11.4646 93.7988 12.5626C92.5485 14.601 96.7611 17.5842 94.551 18.5C88.5853 19.0129 75.6665 21.6022 81.4753 23.0548C83.8134 23.6408 88.6255 22.8776 90.9931 23.0548C90.8553 23.3453 90.7175 23.6555 90.496 23.8525C90.3877 23.946 90.3877 24.1331 90.5157 24.2119C90.9783 24.5024 93.277 24.6107 92.7946 25.5216C92.3615 26.3438 91.4656 26.8854 90.8947 27.6092C90.7913 27.7422 90.8947 27.9637 91.062 27.9686C92.2384 27.9932 97.1164 29.0026 95.3296 30.8637C95.2361 30.9622 95.2115 31.1444 95.3493 31.2232C96.1664 31.7057 97.0868 31.8977 97.963 32.2227C97.771 32.4787 97.5938 32.7544 97.3674 32.9858C97.2394 33.1138 97.2739 33.296 97.4363 33.3748C99.0016 34.1232 97.0278 35.3935 96.3977 35.8514C96.2501 35.9597 96.3239 36.1763 96.4666 36.2404C97.5889 36.7278 98.8096 36.7426 99.9762 37.0626C99.9122 37.1118 99.8482 37.1561 99.7695 37.1906C99.6218 37.2792 99.5923 37.4762 99.7399 37.5845C100.38 38.0719 99.9713 37.9784 99.4938 38.1852C99.1197 38.3477 98.7013 38.4363 98.3076 38.5348C97.7858 38.6677 97.2887 38.8105 96.8014 39.037C96.6537 39.1059 85.3984 42.1832 85.551 42.2718C87.008 43.1482 99.9122 40.5781 101.487 41.164C100.636 41.5776 99.6858 41.7499 98.8736 42.2718C98.7112 42.3752 98.6964 42.6164 98.8933 42.6903C99.4298 42.8971 99.9762 43.0596 100.523 43.2368C100.69 43.291 101.556 43.8031 101.591 43.7784C101.226 44.0246 101.059 44.32 100.591 44.4727C100.395 44.5367 100.35 44.7435 100.503 44.8863C100.665 45.034 100.823 45.1964 100.98 45.354C100.05 46.127 98.7555 46.26 97.6578 46.7178C97.4708 46.7966 97.5003 47.0724 97.6775 47.1364C99.1197 47.6533 100.621 47.9586 102.088 48.3722C101.93 48.4454 99.2314 49.2344 99.9467 49.4062C100.567 49.5539 101.271 49.6573 101.827 49.9921C102.235 50.2383 102.57 50.6912 102.905 51.0753C102.078 51.3855 101.212 51.5578 100.365 51.8187C100.124 51.8926 94.2803 52.9655 94.551 53C101.68 53.8546 101.042 53.49 99.551 55.5C98.7249 56.5625 103.017 56.4686 102.866 57.8059C102.841 58.0373 102.88 58.2786 102.944 58.5198L102.949 58.5247Z" fill="#010101"/>
<path d="M14.7119 19.5694C14.5345 18.6294 13.6147 17.9998 12.6699 18.1817L9.89355 18.7081C8.95341 18.8853 8.32276 19.8067 8.50488 20.752C8.63177 21.4246 9.14031 21.9352 9.76465 22.1065L27.2021 113.719L31.4668 112.906L14.0312 21.3018C14.5532 20.9148 14.8428 20.249 14.7119 19.5694Z" fill="#010101"/>
</svg>
