<svg width="46" height="46" viewBox="0 0 46 46" fill="none" xmlns="http://www.w3.org/2000/svg">
<path d="M33.0557 12.6198C32.7849 11.6291 32.3645 10.6988 31.8514 9.83636C31.3277 8.981 30.6935 8.20404 29.963 7.54114C29.2291 6.8818 28.4096 6.32937 27.5295 5.91239C27.0913 5.70211 26.6352 5.53104 26.172 5.38848C25.7088 5.25304 25.235 5.15682 24.7611 5.0891C24.2872 5.02495 23.8133 5 23.3038 5L22.9974 5.01426H22.9226L22.9048 5.01782H22.862H22.8513H22.8086L22.634 5.03564C22.3988 5.05346 22.1672 5.0891 21.9321 5.12118C21.0057 5.27443 20.1043 5.55599 19.2776 5.97297C18.451 6.3864 17.6992 6.921 17.0436 7.54114C16.7194 7.85477 16.4166 8.18979 16.1386 8.53906C15.8679 8.89546 15.622 9.26612 15.4047 9.65103C14.9771 10.4244 14.6636 11.2513 14.4854 12.0959C14.3963 12.5201 14.35 12.9477 14.3215 13.3719C14.3001 13.7924 14.3108 14.2379 14.3465 14.6335L14.8096 14.6442C14.856 14.2272 14.9201 13.8566 15.0163 13.4716C15.1161 13.0939 15.2336 12.7232 15.3869 12.3668C15.6826 11.654 16.0745 10.9947 16.5484 10.4137C17.0258 9.83636 17.5781 9.33383 18.1767 8.92041C18.7824 8.51055 19.4344 8.19691 20.1114 7.98664C20.7883 7.77993 21.4831 7.66588 22.1744 7.65875C22.3489 7.65875 22.52 7.65875 22.691 7.67301L22.8193 7.68013H22.8513H22.8585C22.8691 7.68013 22.8014 7.68013 22.8335 7.68013H22.8513L22.9261 7.69083L23.229 7.71934C23.5283 7.76923 23.8668 7.83339 24.191 7.92961C24.8359 8.12207 25.4452 8.40006 26.001 8.74577C26.5568 9.09861 27.0521 9.52985 27.4725 10.0146C27.8894 10.5064 28.2386 11.0481 28.4844 11.6255C28.7374 12.2029 28.8728 12.8159 28.9191 13.4253C28.9405 13.7283 28.9333 14.0348 28.9191 14.3341L28.8977 14.5587V14.6157L28.8906 14.6299C28.8906 14.6834 28.8906 14.5658 28.8906 14.5801V14.5907L28.8835 14.6299L28.8657 14.7832L28.8478 14.9365L28.8407 15.0113L28.83 15.0541L28.7944 15.2287C28.6768 15.7989 28.5058 16.3549 28.2884 16.886C28.0675 17.417 27.8003 17.9302 27.4761 18.4256C27.1519 18.921 26.7635 19.3843 26.311 19.8049C25.862 20.229 25.3454 20.6068 24.7718 20.9311C24.1946 21.2483 23.5604 21.5192 22.862 21.7116L21.5936 22.0609L21.6506 22.9234C21.7824 24.9477 21.9214 26.9721 22.0817 28.9965L22.3382 32.033L22.4808 33.5513L22.634 35.0695H23.0972L23.2504 33.5513L23.3929 32.033L23.6494 28.9965C23.7741 27.4247 23.8846 25.8494 23.9879 24.2777C24.5758 24.3169 25.1744 24.3027 25.7694 24.2064C26.2611 24.1352 26.7492 24.0104 27.2267 23.8536C27.7041 23.6896 28.1709 23.4865 28.6234 23.2513C29.0687 23.0018 29.5034 22.7238 29.9132 22.4137C30.3158 22.093 30.7006 21.7437 31.0605 21.3659C31.7659 20.5997 32.3467 19.7051 32.7493 18.7321C33.1555 17.7591 33.3764 16.7185 33.4227 15.6671C33.4583 14.6406 33.3336 13.5893 33.0593 12.6092L33.0557 12.6198Z" fill="#010101"/>
<path d="M25.2542 28.9607V26.8187C25.2542 26.2307 24.7732 25.7495 24.1853 25.7495H21.4205C20.8326 25.7495 20.3516 26.2307 20.3516 26.8187V28.9607H25.2542Z" fill="#010101"/>
<path d="M30.9727 39.4713V35.0947C30.9727 30.9533 27.5843 27.564 23.4441 27.564H22.1614C18.0212 27.564 14.6328 30.9533 14.6328 35.0947V39.4713H30.9727Z" fill="#010101"/>
<path d="M31.2069 40.8721H14.4003C13.6306 40.8721 13 40.2413 13 39.4715C13 38.7016 13.6306 38.0708 14.4003 38.0708H31.2069C31.9765 38.0708 32.6071 38.7016 32.6071 39.4715C32.6071 40.2413 31.9765 40.8721 31.2069 40.8721Z" fill="#010101"/>
</svg>
