<svg width="142" height="130" viewBox="0 0 142 130" fill="none" xmlns="http://www.w3.org/2000/svg">
<g filter="url(#filter0_f_1014_37351)">
<path d="M76.7269 55.4599C89.5328 62.9273 102.308 72.1378 98.924 78.0808C94.0673 86.5829 89.4105 92.2763 105.04 103.877C120.67 115.477 125.486 101.999 130.178 93.7677C135.591 84.2701 121.199 58.2522 86.6533 38.038C52.1073 17.8238 22.6664 18.222 17.2445 27.7219C12.5703 35.9668 3.46594 46.9047 21.1733 54.8223C38.8807 62.7399 41.4262 55.7972 46.2671 47.304C49.6775 41.3584 63.9354 47.961 76.7269 55.4599Z" fill="#010101"/>
<path d="M12.8431 48.1202C11.3598 45.9688 11.0012 43.7313 11.3101 41.4602C11.6214 39.1718 12.6114 36.8469 13.8358 34.5565C14.919 32.5303 16.1323 30.6212 17.2205 28.7614L17.6781 27.9673C18.9377 25.7617 21.6416 24.0092 25.642 22.9679C29.6308 21.9297 34.8362 21.6198 40.9748 22.2357C53.2488 23.4672 69.1783 28.394 86.4005 38.4713C103.622 48.5486 115.8 60.0611 122.993 70.2131C126.59 75.2903 128.929 80.0124 130.037 84.0315C131.149 88.0638 131.003 91.3144 129.745 93.5213C128.545 95.6267 127.401 97.9485 126.042 100.193C124.698 102.416 123.205 104.448 121.404 105.866C119.618 107.273 117.527 108.076 114.948 107.849C112.35 107.621 109.205 106.343 105.339 103.474C97.5467 97.6904 94.9697 93.4878 94.7982 89.7912C94.7121 87.9343 95.2287 86.1462 96.0865 84.2738C96.9493 82.3905 98.1299 80.4748 99.3564 78.3276L99.3574 78.3274C100.317 76.6426 100.096 74.7628 99.1295 72.8593C98.1674 70.9646 96.4363 68.9747 94.2334 66.9697C89.822 62.9545 83.3898 58.7643 76.9808 55.027C70.5788 51.2739 63.7789 47.7268 58.1372 45.8649C55.3204 44.9352 52.7509 44.4108 50.6448 44.5151C48.527 44.6201 46.8024 45.3699 45.835 47.0564L45.8343 47.0576L44.9453 48.6346C44.0796 50.1793 43.2693 51.6177 42.385 52.8905C41.2127 54.5778 39.943 55.9225 38.3159 56.7738C35.0786 58.4673 30.2079 58.3125 21.3785 54.3646C16.9988 52.4062 14.3365 50.286 12.8431 48.1202Z" stroke="#010101"/>
</g>
<g filter="url(#filter1_f_1014_37351)">
<path d="M76.7269 55.4599C89.5328 62.9273 102.308 72.1378 98.924 78.0808C94.0673 86.5829 89.4105 92.2763 105.04 103.877C120.67 115.477 125.486 101.999 130.178 93.7677C135.591 84.2701 121.199 58.2522 86.6533 38.038C52.1073 17.8238 22.6664 18.222 17.2445 27.7219C12.5703 35.9668 3.46594 46.9047 21.1733 54.8223C38.8807 62.7399 41.4262 55.7972 46.2671 47.304C49.6775 41.3584 63.9354 47.961 76.7269 55.4599Z" fill="#010101"/>
<path d="M12.8431 48.1202C11.3598 45.9688 11.0012 43.7313 11.3101 41.4602C11.6214 39.1718 12.6114 36.8469 13.8358 34.5565C14.919 32.5303 16.1323 30.6212 17.2205 28.7614L17.6781 27.9673C18.9377 25.7617 21.6416 24.0092 25.642 22.9679C29.6308 21.9297 34.8362 21.6198 40.9748 22.2357C53.2488 23.4672 69.1783 28.394 86.4005 38.4713C103.622 48.5486 115.8 60.0611 122.993 70.2131C126.59 75.2903 128.929 80.0124 130.037 84.0315C131.149 88.0638 131.003 91.3144 129.745 93.5213C128.545 95.6267 127.401 97.9485 126.042 100.193C124.698 102.416 123.205 104.448 121.404 105.866C119.618 107.273 117.527 108.076 114.948 107.849C112.35 107.621 109.205 106.343 105.339 103.474C97.5467 97.6904 94.9697 93.4878 94.7982 89.7912C94.7121 87.9343 95.2287 86.1462 96.0865 84.2738C96.9493 82.3905 98.1299 80.4748 99.3564 78.3276L99.3574 78.3274C100.317 76.6426 100.096 74.7628 99.1295 72.8593C98.1674 70.9646 96.4363 68.9747 94.2334 66.9697C89.822 62.9545 83.3898 58.7643 76.9808 55.027C70.5788 51.2739 63.7789 47.7268 58.1372 45.8649C55.3204 44.9352 52.7509 44.4108 50.6448 44.5151C48.527 44.6201 46.8024 45.3699 45.835 47.0564L45.8343 47.0576L44.9453 48.6346C44.0796 50.1793 43.2693 51.6177 42.385 52.8905C41.2127 54.5778 39.943 55.9225 38.3159 56.7738C35.0786 58.4673 30.2079 58.3125 21.3785 54.3646C16.9988 52.4062 14.3365 50.286 12.8431 48.1202Z" stroke="#010101"/>
</g>
<g filter="url(#filter2_f_1014_37351)">
<path d="M76.7269 55.4599C89.5328 62.9273 102.308 72.1378 98.924 78.0808C94.0673 86.5829 89.4105 92.2763 105.04 103.877C120.67 115.477 125.486 101.999 130.178 93.7677C135.591 84.2701 121.199 58.2522 86.6533 38.038C52.1073 17.8238 22.6664 18.222 17.2445 27.7219C12.5703 35.9668 3.46594 46.9047 21.1733 54.8223C38.8807 62.7399 41.4262 55.7972 46.2671 47.304C49.6775 41.3584 63.9354 47.961 76.7269 55.4599Z" fill="#010101"/>
<path d="M12.8431 48.1202C11.3598 45.9688 11.0012 43.7313 11.3101 41.4602C11.6214 39.1718 12.6114 36.8469 13.8358 34.5565C14.919 32.5303 16.1323 30.6212 17.2205 28.7614L17.6781 27.9673C18.9377 25.7617 21.6416 24.0092 25.642 22.9679C29.6308 21.9297 34.8362 21.6198 40.9748 22.2357C53.2488 23.4672 69.1783 28.394 86.4005 38.4713C103.622 48.5486 115.8 60.0611 122.993 70.2131C126.59 75.2903 128.929 80.0124 130.037 84.0315C131.149 88.0638 131.003 91.3144 129.745 93.5213C128.545 95.6267 127.401 97.9485 126.042 100.193C124.698 102.416 123.205 104.448 121.404 105.866C119.618 107.273 117.527 108.076 114.948 107.849C112.35 107.621 109.205 106.343 105.339 103.474C97.5467 97.6904 94.9697 93.4878 94.7982 89.7912C94.7121 87.9343 95.2287 86.1462 96.0865 84.2738C96.9493 82.3905 98.1299 80.4748 99.3564 78.3276L99.3574 78.3274C100.317 76.6426 100.096 74.7628 99.1295 72.8593C98.1674 70.9646 96.4363 68.9747 94.2334 66.9697C89.822 62.9545 83.3898 58.7643 76.9808 55.027C70.5788 51.2739 63.7789 47.7268 58.1372 45.8649C55.3204 44.9352 52.7509 44.4108 50.6448 44.5151C48.527 44.6201 46.8024 45.3699 45.835 47.0564L45.8343 47.0576L44.9453 48.6346C44.0796 50.1793 43.2693 51.6177 42.385 52.8905C41.2127 54.5778 39.943 55.9225 38.3159 56.7738C35.0786 58.4673 30.2079 58.3125 21.3785 54.3646C16.9988 52.4062 14.3365 50.286 12.8431 48.1202Z" stroke="#010101"/>
</g>
<defs>
<filter id="filter0_f_1014_37351" x="9.20898" y="19.9199" width="123.578" height="89.9688" filterUnits="userSpaceOnUse" color-interpolation-filters="sRGB">
<feFlood flood-opacity="0" result="BackgroundImageFix"/>
<feBlend mode="normal" in="SourceGraphic" in2="BackgroundImageFix" result="shape"/>
<feGaussianBlur stdDeviation="0.75" result="effect1_foregroundBlur_1014_37351"/>
</filter>
<filter id="filter1_f_1014_37351" x="6.70898" y="17.4199" width="128.578" height="94.9688" filterUnits="userSpaceOnUse" color-interpolation-filters="sRGB">
<feFlood flood-opacity="0" result="BackgroundImageFix"/>
<feBlend mode="normal" in="SourceGraphic" in2="BackgroundImageFix" result="shape"/>
<feGaussianBlur stdDeviation="2" result="effect1_foregroundBlur_1014_37351"/>
</filter>
<filter id="filter2_f_1014_37351" x="0.708984" y="11.4199" width="140.578" height="106.969" filterUnits="userSpaceOnUse" color-interpolation-filters="sRGB">
<feFlood flood-opacity="0" result="BackgroundImageFix"/>
<feBlend mode="normal" in="SourceGraphic" in2="BackgroundImageFix" result="shape"/>
<feGaussianBlur stdDeviation="5" result="effect1_foregroundBlur_1014_37351"/>
</filter>
</defs>
</svg>
