<svg width="60" height="60" viewBox="0 0 60 60" fill="none" xmlns="http://www.w3.org/2000/svg">
<g clip-path="url(#clip0_3001_10099)">
<path d="M14.5046 42.405C14.1991 42.405 13.704 42.0784 13.3669 41.6465C13.1456 41.3726 12.819 40.8353 13.0824 40.3296C13.1562 40.2137 13.2194 40.0978 13.2931 39.9819L13.3352 39.9082L15.1473 41.7308L15.1157 41.7729C15.0419 41.8888 14.9787 42.0047 14.905 42.1206C14.8523 42.2048 14.7575 42.3418 14.5784 42.3945C14.5573 42.405 14.5362 42.405 14.5046 42.405ZM13.3563 40.1294C13.3036 40.2243 13.251 40.3085 13.1983 40.3928C12.9771 40.8248 13.272 41.3094 13.4722 41.5517C13.8409 42.0152 14.3466 42.2997 14.5573 42.247C14.6837 42.2154 14.7469 42.11 14.7996 42.0363C14.8523 41.9415 14.9155 41.8466 14.9787 41.7413L13.3563 40.1294Z" fill="#010101"/>
<path d="M46.0227 10.9051C45.949 10.9051 45.8752 10.8946 45.7699 10.8419C45.7593 10.8419 45.1904 10.4837 45.2115 10.1993C45.2115 10.1361 45.2536 10.0518 45.3906 9.99911C45.4643 9.97804 45.517 9.96751 45.5697 9.94644C45.6013 9.9359 45.6329 9.92537 45.675 9.91483L45.7172 9.9043L46.5705 10.7576L46.4546 10.7892C46.3704 10.8103 46.2861 10.8419 46.2018 10.863C46.1597 10.8946 46.0964 10.9051 46.0227 10.9051ZM45.675 10.0729C45.6434 10.0834 45.6224 10.0834 45.6013 10.0939C45.5486 10.1045 45.5065 10.115 45.4327 10.1361C45.3485 10.1677 45.3485 10.1993 45.3485 10.2098C45.3379 10.3678 45.7488 10.6734 45.8331 10.7155C45.9806 10.7892 46.0859 10.7576 46.1491 10.7366C46.2018 10.7155 46.2439 10.705 46.2966 10.6944L45.675 10.0729Z" fill="#010101"/>
<path d="M42.8958 13.1703L42.8642 13.1176C42.6219 12.7278 42.3796 12.338 42.1373 11.9482L41.9688 11.6743L42.2321 11.8534C42.6641 12.1379 43.0855 12.4223 43.5174 12.7067L43.6122 12.77L43.5069 12.8226C43.3278 12.928 43.1381 13.0333 42.9485 13.1387L42.8958 13.1703ZM42.4218 12.1379C42.6009 12.4223 42.7694 12.6962 42.938 12.9807C43.0749 12.9069 43.2119 12.8226 43.3383 12.7489C43.0328 12.5487 42.7273 12.338 42.4218 12.1379Z" fill="#010101"/>
<path d="M33.351 20.8819C32.6451 20.8819 32.1184 20.1129 32.0552 19.9654C31.8234 19.4808 31.9077 19.1226 32.3501 18.7117C32.4976 18.5853 32.6557 18.4483 32.8031 18.3219L32.8558 18.2798L34.6678 20.1023L34.6152 20.155C34.4677 20.2814 34.3202 20.4079 34.1622 20.5448C34.0147 20.6607 33.7513 20.8714 33.372 20.8819C33.3615 20.8819 33.351 20.8819 33.351 20.8819ZM32.1816 19.9127C32.2343 20.0181 32.7294 20.745 33.351 20.745H33.3615C33.6881 20.745 33.9304 20.5448 34.0568 20.4395C34.1832 20.3236 34.3202 20.2182 34.4466 20.1023L32.8348 18.48C32.6978 18.5958 32.5714 18.7117 32.4344 18.8276C32.0446 19.1858 31.9709 19.4808 32.1816 19.9127Z" fill="#010101"/>
<path d="M12.4261 45.9869L12.3313 45.871C11.9205 45.3548 11.7624 45.1652 11.3726 44.6805L11.0039 44.2275L11.4674 44.5857C11.9415 44.9545 11.9942 44.9966 12.521 45.3969L12.5631 45.4285L12.5526 45.4707C12.521 45.5971 12.4893 45.7235 12.4577 45.8499L12.4261 45.9869ZM11.8467 45.0493C12.0047 45.2389 12.1417 45.418 12.3524 45.6708C12.3629 45.6076 12.384 45.5444 12.4051 45.4707C12.1417 45.2705 11.9942 45.1652 11.8467 45.0493Z" fill="#010101"/>
<path d="M14.8943 53.8144L4.94922 43.8693L18.9819 29.8367L5.2758 16.1306L15.2209 6.18555L28.9269 19.8916L42.3064 6.51213L45.3511 9.55676L45.2352 9.58836C45.1193 9.61997 44.9929 9.66211 44.8664 9.70425C44.8348 9.71478 44.8032 9.73585 44.7822 9.74639C44.7084 9.79906 44.6873 9.87281 44.7084 9.97816C44.7927 10.3996 45.488 11.0106 45.9937 11.1054L46.099 11.1265L46.0358 11.2108C45.9516 11.3372 46.236 11.6638 46.5204 11.9693C46.7733 12.2432 46.8997 12.3907 46.9524 12.4855C47.0367 12.4539 47.1104 12.4223 47.1947 12.3907C47.0999 12.2748 47.0051 12.1589 46.8892 12.0536C46.7417 11.8955 46.5837 11.7375 46.4678 11.5479C46.4151 11.4531 46.394 11.3793 46.4256 11.3161C46.4572 11.2318 46.5415 11.2002 46.5942 11.1792L46.6785 11.1581C46.7311 11.137 46.7733 11.1265 46.847 11.1054L46.8892 11.0949L47.9743 12.18L52.2515 16.4572L38.872 29.8367L52.5781 43.5428L42.633 53.4878L28.9269 39.7818L14.8943 53.8144ZM5.14938 43.8693L14.8943 53.6143L28.9269 39.5816L42.633 53.2877L52.3779 43.5428L38.6718 29.8367L52.0619 16.4572L46.847 11.2424C46.8049 11.2529 46.7627 11.2634 46.7206 11.2845L46.6469 11.3056C46.6153 11.3161 46.5731 11.3372 46.5626 11.3582C46.5626 11.3688 46.552 11.4004 46.5942 11.4741C46.6995 11.6532 46.8365 11.8007 46.9945 11.9587C47.1209 12.0957 47.2579 12.2327 47.3632 12.3907L47.4159 12.4644L47.3316 12.496C47.2052 12.5382 47.0788 12.5908 46.9524 12.6435L46.8892 12.6751L46.8681 12.6119C46.8365 12.5276 46.7311 12.3907 46.4362 12.0746C46.0674 11.6743 45.8673 11.4215 45.8989 11.2318C45.3616 11.0843 44.6873 10.4628 44.5925 10.0098C44.5504 9.79906 44.6347 9.69371 44.719 9.6305C44.7611 9.5989 44.8138 9.57783 44.8348 9.57783C44.9297 9.54622 45.0139 9.52515 45.0982 9.49355L42.3064 6.70176L28.9269 20.0918L15.2209 6.38571L5.46544 16.1306L19.1715 29.8367L5.14938 43.8693ZM13.5669 48.9156L13.0612 48.4099C12.9664 48.2835 12.8926 48.136 12.8505 47.9675L12.4502 47.5566C12.4607 47.5777 12.4712 47.5987 12.4923 47.6198L12.3869 47.7041L11.9234 47.2406C11.8391 47.1141 11.7759 46.9772 11.7338 46.8297L11.4072 46.5031C11.4283 46.5347 11.4493 46.5663 11.4704 46.5874L11.3651 46.6822L10.8804 46.1976C10.7435 46.008 10.6592 45.7867 10.6171 45.5233L10.596 45.3864C10.5539 45.1125 10.5644 44.7859 10.6276 44.4172L10.6487 44.2802L11.2702 44.9123L11.2597 44.9439C11.2386 45.0598 11.2281 45.1757 11.2176 45.281L13.2298 47.3038C12.545 46.4715 11.7548 45.5128 10.6908 44.1749L10.6697 44.1538L10.6803 44.1222C10.7013 44.0168 10.7329 43.9115 10.7646 43.7956L10.7962 43.7008L10.8804 43.764C11.4072 44.1538 11.9761 44.5963 12.703 45.123C12.6714 45.0914 12.6398 45.0598 12.6082 45.0387L12.5766 45.0071L12.5871 44.965C12.6293 44.8491 12.6714 44.7332 12.7135 44.6068L12.7451 44.512L12.8189 44.5752C13.2298 44.9334 13.3772 44.9228 13.4194 44.8912C13.4826 44.8596 13.4931 44.7543 13.4931 44.67C13.4615 44.1222 12.5344 43.1214 12.0182 42.9739C11.9023 42.9423 11.8286 42.9528 11.7865 43.0055C11.7338 43.0792 11.6495 43.3005 12.0709 43.8167L12.092 43.8483L12.0814 43.8904C12.0393 44.0063 11.9972 44.1222 11.955 44.2381L11.9129 44.354L11.8391 44.2697C10.9226 43.2478 11.0701 42.6684 11.1333 42.5103V42.4998C11.2597 42.268 11.4599 42.1627 11.7232 42.1943C12.5766 42.2891 13.8197 43.6797 14.0831 44.6173C14.199 45.0387 14.1463 45.418 13.9461 45.5866C13.8408 45.6814 13.6301 45.7446 13.2824 45.5655C13.4299 45.6708 13.5774 45.7867 13.746 45.9026L13.7881 45.9342L13.767 45.9869C13.7249 46.1028 13.6828 46.2187 13.6512 46.3345L13.6195 46.4294L13.5458 46.3661C13.3562 46.2292 13.1771 46.0817 12.9874 45.9447C12.9453 46.0817 12.9137 46.2187 12.8926 46.3451C13.0823 46.5769 13.2614 46.7981 13.451 47.0299L13.4721 47.0509L13.4615 47.0825C13.4405 47.1879 13.4299 47.2827 13.4194 47.3775L13.4088 47.5039V47.5355C13.3983 47.6198 13.3983 47.7041 13.3983 47.7884V47.9569L11.2176 45.7551C11.2176 45.7973 11.2281 45.8394 11.2281 45.8815L11.2492 45.9974L13.4405 48.1992V48.2203C13.4721 48.4626 13.5563 48.6733 13.6722 48.8313L13.5669 48.9156ZM13.1665 48.3257L13.3562 48.5153C13.3351 48.431 13.314 48.3467 13.3035 48.2625L12.9874 47.9464C13.0191 48.0834 13.0823 48.2203 13.1665 48.3257ZM11.0595 45.3969L13.2614 47.6093C13.2614 47.5882 13.2614 47.5671 13.2614 47.5461L11.0701 45.3443V45.3126C11.0806 45.2073 11.0911 45.0809 11.1122 44.965L10.733 44.5857C10.6908 44.8702 10.6908 45.1335 10.7224 45.3548L11.0701 45.7024C11.0701 45.6603 11.0701 45.6182 11.0701 45.576L11.0595 45.3969ZM11.8602 46.8086C11.9023 46.9456 11.955 47.0615 12.0182 47.1668L12.1973 47.3459C12.1973 47.3354 12.1868 47.3143 12.1868 47.3038L12.1341 47.0931L11.8602 46.8086ZM10.8067 44.1117C11.8497 45.418 12.6187 46.3661 13.293 47.1773C13.3035 47.1457 13.3035 47.1036 13.314 47.0615C13.1244 46.8297 12.9348 46.6085 12.7557 46.3767L12.7346 46.3556L12.7451 46.324C12.7767 46.1554 12.8294 45.9764 12.8821 45.7867L12.9137 45.6919L12.998 45.7551C13.1876 45.8921 13.3667 46.0396 13.5563 46.1765C13.5774 46.1028 13.5985 46.0396 13.6301 45.9658C12.4291 45.1019 11.5863 44.4804 10.8488 43.922C10.8383 43.9852 10.8172 44.0484 10.8067 44.1117ZM10.7856 45.7235C10.8278 45.871 10.891 45.9974 10.9647 46.1028L11.1438 46.2819C11.1333 46.2608 11.1333 46.2397 11.1227 46.2187L11.0701 46.008L10.7856 45.7235ZM12.703 44.9545C12.861 45.1019 13.0928 45.3021 13.3351 45.4285C13.4931 45.5128 13.7038 45.576 13.8408 45.4707C13.9988 45.3442 14.0304 45.0071 13.9356 44.6489C13.6617 43.6903 12.4291 42.405 11.6916 42.3207C11.4809 42.2996 11.3334 42.3734 11.2386 42.5525C11.186 42.6894 11.0701 43.174 11.8391 44.0695C11.8602 44.0063 11.8918 43.9326 11.9129 43.8693C11.4915 43.3426 11.5336 43.0582 11.6495 42.9107C11.7022 42.8369 11.8075 42.7632 12.0288 42.8264C12.5976 42.9949 13.5563 44.0274 13.5985 44.6489C13.5985 44.7332 13.5985 44.9334 13.451 45.0071C13.3035 45.0809 13.0823 44.9861 12.7767 44.7332C12.7557 44.8175 12.7346 44.8807 12.703 44.9545ZM14.4518 44.3645L11.6495 41.5516L11.6706 41.5095C11.7443 41.3725 11.8181 41.2251 11.8918 41.0881L11.9339 41.0038L14.7363 43.8167L14.7152 43.8588C14.6414 44.0063 14.5677 44.1433 14.494 44.2802L14.4518 44.3645ZM11.8181 41.52L14.4097 44.1327C14.4624 44.0379 14.5045 43.9326 14.5572 43.8377L11.9655 41.2251C11.9234 41.3199 11.8707 41.4147 11.8181 41.52ZM14.652 43.1003C14.5888 43.1003 14.515 43.0898 14.4518 43.0792C13.5247 42.8685 12.4923 41.362 12.3975 40.7404C12.3343 40.298 12.4818 40.0241 12.5555 39.8976C12.7241 39.6132 12.9032 39.3182 13.0928 39.0232L13.1349 38.9495L15.9267 41.7623L15.8951 41.8045C15.7055 42.0995 15.5264 42.3944 15.3578 42.6789C15.1787 42.9528 14.9364 43.1003 14.652 43.1003ZM12.6714 39.9608C12.6082 40.0767 12.4712 40.319 12.5344 40.7194C12.6187 41.2988 13.6195 42.7526 14.4729 42.9423C14.7889 43.016 15.0523 42.9001 15.2525 42.6051C15.4105 42.3418 15.5791 42.0573 15.7582 41.7729L13.156 39.1602C12.9874 39.4341 12.8189 39.708 12.6714 39.9608ZM16.0531 41.5622L13.2614 38.7493L13.293 38.7072C13.3983 38.5492 13.4931 38.3911 13.609 38.2226L13.6512 38.1488L15.263 39.7712C15.0312 39.2234 14.6731 38.3806 14.2516 37.3166L14.2411 37.285L14.2622 37.2533C14.3886 37.0743 14.515 36.8952 14.6414 36.7161L14.6941 36.6423C14.8311 36.4422 14.9786 36.242 15.1261 36.0418L15.1577 35.9997L15.2314 36.0208C15.6212 36.1472 15.9899 36.2736 16.5799 36.4632C16.3903 35.9575 16.2533 35.6099 16.0005 34.9146L15.9899 34.883L16.011 34.8514C16.1796 34.6407 16.3376 34.4194 16.5167 34.1982L16.601 34.0928L16.6431 34.2193C16.8959 34.9672 17.1382 35.6836 17.5386 36.8214L18.6237 37.9065L18.5921 37.9592C18.4551 38.1383 18.3182 38.3279 18.1812 38.507L18.1285 38.5702L17.0434 37.4851C16.3692 37.2744 15.7687 37.0848 14.8205 36.7687L17.4859 39.4552L17.4543 39.5078C17.3279 39.6764 17.212 39.845 17.0961 40.0135L17.0434 40.0767L15.421 38.4438C15.6528 39.0232 15.9899 39.8555 16.4429 40.9195L16.4535 40.9511L16.4324 40.9827C16.3271 41.1513 16.2112 41.3199 16.1058 41.4779L16.0531 41.5622ZM13.4299 38.7388L16.0215 41.3515C16.1058 41.2251 16.1901 41.0881 16.2744 40.9511C15.7371 39.6975 15.3684 38.7599 15.1366 38.2015L15.0102 37.8855L15.2525 38.1172L17.0013 39.8766C17.0961 39.7501 17.1804 39.6132 17.2752 39.4762L14.6836 36.8636C14.5782 37.011 14.4729 37.1585 14.3781 37.306C14.8943 38.5913 15.3052 39.5395 15.5159 40.0557L15.6528 40.3928L13.6512 38.3806C13.5879 38.4965 13.5037 38.6124 13.4299 38.7388ZM14.8416 36.6529C15.8003 36.9689 16.4008 37.1585 17.075 37.3692H17.0961L18.0864 38.3701C18.1918 38.2226 18.2971 38.0856 18.413 37.9381L17.3911 36.8952C17.0013 35.7995 16.7695 35.1042 16.5272 34.3984C16.3903 34.5669 16.2638 34.746 16.1269 34.9146C16.3903 35.631 16.5272 35.9786 16.7274 36.5264L16.7906 36.6845L16.6536 36.6423C16.0005 36.4316 15.6001 36.2947 15.1893 36.1682C15.0734 36.3368 14.9575 36.4948 14.8416 36.6529ZM19.0346 36.7793C19.024 36.7793 19.0029 36.7793 18.9924 36.7793C18.4235 36.7477 18.0653 36.1893 18.0232 36.1261C17.6966 35.5993 17.9494 34.9989 18.1918 34.43C18.3182 34.135 18.4551 33.8295 18.3603 33.6609C18.3287 33.5977 18.255 33.5556 18.1496 33.5345C18.0443 33.5134 17.9178 33.5766 17.802 33.6925C17.6439 33.8611 17.5596 34.0928 17.6018 34.2614C17.6334 34.3878 17.6755 34.451 17.7598 34.5669L17.7914 34.6091L17.7598 34.6512C17.6123 34.8303 17.4754 35.0199 17.3279 35.199L17.2752 35.2622L17.2225 35.199C16.5061 34.3984 16.8011 33.682 17.1593 33.229C17.6755 32.6285 18.1496 32.6074 18.4446 32.7022C18.8871 32.8392 19.2136 33.3027 19.2558 33.6609C19.2979 33.998 19.1715 34.3246 19.0029 34.7249C18.8133 35.1885 18.6974 35.4729 18.7185 35.6099C18.7396 35.7152 18.8449 35.8627 18.9819 35.9049C19.1294 35.947 19.2979 35.8627 19.456 35.6731C19.8774 35.1463 19.5718 34.7987 19.4454 34.6407L19.4033 34.5985L19.4454 34.5564C19.6034 34.3562 19.772 34.1666 19.93 33.9664L19.9827 33.9032L20.0354 33.9664C20.6991 34.7144 20.5095 35.4308 20.3409 35.789C20.0881 36.3473 19.5086 36.7793 19.0346 36.7793ZM18.118 33.3975C18.1391 33.3975 18.1707 33.3975 18.1918 33.4081C18.3392 33.4397 18.4446 33.5029 18.4973 33.6082C18.6132 33.8295 18.4657 34.1666 18.3287 34.4932C18.0969 35.0305 17.8546 35.5888 18.1496 36.0629C18.1812 36.1156 18.5078 36.6212 19.0029 36.6423C19.4349 36.6634 19.9827 36.2525 20.2355 35.7258C20.3936 35.4097 20.5621 34.7776 20.0143 34.1139C19.8774 34.2719 19.7509 34.4405 19.614 34.5985C19.7615 34.7776 20.0459 35.199 19.5929 35.7574C19.3506 36.0629 19.1188 36.084 18.9819 36.0418C18.7712 35.9891 18.6342 35.789 18.6132 35.6415C18.5815 35.4624 18.6869 35.199 18.8976 34.6828C19.0556 34.293 19.182 33.9875 19.1399 33.682C19.0978 33.3659 18.8133 32.9656 18.4235 32.8392C18.0548 32.7233 17.6545 32.8918 17.2857 33.3238C16.9592 33.7241 16.7063 34.3457 17.2857 35.0515C17.4016 34.904 17.5175 34.7565 17.6229 34.6196C17.5491 34.5248 17.507 34.4405 17.4754 34.3035C17.4122 34.0612 17.5491 33.7768 17.7071 33.6082C17.8336 33.4607 17.9811 33.3975 18.118 33.3975ZM21.8685 33.8716L19.0767 31.0588L19.1188 31.0061C19.2874 30.8059 19.456 30.6163 19.6245 30.4161L19.6772 30.3634L21.3523 32.049C21.1942 31.4485 20.9519 30.532 20.6359 29.3205L20.6253 29.2889L20.6464 29.2573C20.836 29.0466 21.0257 28.8359 21.2258 28.6252L21.2785 28.5725L24.0703 31.3853L24.0282 31.438C23.8491 31.6382 23.6594 31.8383 23.4803 32.0385L23.4277 32.0912L21.7421 30.395C21.8895 30.9955 22.1319 31.9437 22.4584 33.1342L22.469 33.1658L22.4479 33.1974C22.2688 33.3975 22.0897 33.6082 21.9212 33.8084L21.8685 33.8716ZM19.2663 31.0588L21.8685 33.6714C22.016 33.4923 22.174 33.3238 22.3215 33.1447C21.9528 31.7857 21.6894 30.7532 21.5524 30.1949L21.4892 29.9526L23.4277 31.9016C23.5751 31.733 23.7332 31.5644 23.8807 31.3959L21.2785 28.7726C21.11 28.9623 20.9414 29.1414 20.7834 29.331C21.131 30.7111 21.3944 31.6803 21.5524 32.2703L21.6156 32.5231L19.6772 30.5741C19.5402 30.7322 19.4033 30.9007 19.2663 31.0588ZM24.2915 31.143L22.7323 29.5733L22.7745 29.5206C23.1432 29.1203 23.5225 28.7094 23.9017 28.3091L23.9544 28.2564L24.4917 28.7937L24.4496 28.8464C24.2599 29.0466 24.0808 29.2362 23.9017 29.4364C24.2494 29.6997 24.5444 29.6365 24.7445 29.5312C25.0922 29.3521 25.3345 28.9096 25.3029 28.5409C25.2608 28.0984 24.7761 27.4452 24.2178 27.2661C23.8491 27.1503 23.5014 27.2661 23.2275 27.6033C22.9747 27.9088 22.9536 28.2143 23.1432 28.5409L23.1748 28.583L23.1432 28.6252C22.9536 28.8253 22.764 29.036 22.5743 29.2362L22.5111 29.2994L22.4584 29.2257C21.6894 28.13 22.4268 27.2135 22.6691 26.9606C23.3223 26.3285 24.0808 26.1494 24.8183 26.4444C25.5979 26.7605 26.1984 27.6033 26.2194 28.3934C26.23 28.8043 26.0403 29.4469 25.5979 29.8894C25.3029 30.1738 24.9447 30.3318 24.5444 30.3424L24.7551 30.6479L24.7129 30.69C24.5865 30.827 24.4706 30.9534 24.3442 31.0904L24.2915 31.143ZM22.922 29.5733L24.281 30.9429C24.3758 30.8375 24.4706 30.7427 24.5654 30.6374L24.2705 30.1949L24.4074 30.2054C24.8288 30.2265 25.187 30.0895 25.4925 29.7945C25.9034 29.3837 26.0825 28.7832 26.072 28.4039C26.0509 27.6559 25.482 26.8763 24.7551 26.5814C24.0808 26.3075 23.3645 26.476 22.7534 27.066C22.5322 27.2977 21.8895 28.1089 22.5111 29.0887C22.6691 28.9201 22.8272 28.7516 22.9852 28.583C22.785 28.2248 22.8272 27.8666 23.1011 27.5295C23.5014 27.0554 23.9333 27.0554 24.2389 27.1503C24.8604 27.3399 25.3766 28.0457 25.4293 28.5409C25.4715 28.9728 25.187 29.468 24.7972 29.6681C24.4496 29.8472 24.0808 29.7945 23.7437 29.5101L23.691 29.468L23.7437 29.4153C23.9228 29.2151 24.1124 29.015 24.3021 28.8148L23.9649 28.4671C23.6068 28.8253 23.2591 29.2046 22.922 29.5733ZM27.0938 28.1722L24.3021 25.3593L24.3547 25.3066C24.5654 25.0959 24.7761 24.8747 24.9974 24.664L25.0501 24.6113L27.8418 27.4242L27.7892 27.4768C27.5785 27.6875 27.3572 27.9088 27.1465 28.1195L27.0938 28.1722ZM24.5022 25.3593L27.1044 27.972C27.2835 27.7929 27.4626 27.6033 27.6417 27.4242L25.0395 24.8115C24.8604 25.0011 24.6813 25.1802 24.5022 25.3593ZM27.9261 26.6972C27.8945 26.6972 27.8524 26.6973 27.8208 26.6867C27.3572 26.634 27.0306 26.2758 26.9358 26.0546C26.683 25.5279 26.9569 25.0222 27.4415 24.2637C27.6206 23.9897 27.8313 23.6421 27.7576 23.4735C27.726 23.4103 27.6627 23.3682 27.5469 23.3576C27.4099 23.3366 27.2203 23.4209 27.0517 23.5894C26.8621 23.7685 26.7462 23.9897 26.7673 24.1478C26.7778 24.2847 26.8305 24.3585 26.9042 24.4533L26.9358 24.506L26.8937 24.5481C26.6935 24.7483 26.4934 24.9484 26.2932 25.1486L26.2405 25.2013L26.1878 25.1486C25.4925 24.3374 25.9455 23.5789 26.4512 23.0837C27.2413 22.3568 27.8418 22.4622 28.1263 22.5781C28.5477 22.7571 28.7795 23.1785 28.7795 23.4841C28.7795 23.8317 28.5793 24.1794 28.337 24.5797C28.0209 25.117 27.8629 25.3804 27.8629 25.5173C27.8629 25.6227 27.9472 25.728 28.0525 25.7702C28.2422 25.8439 28.495 25.7491 28.7373 25.5173C29.3062 24.959 29.0218 24.6218 28.8848 24.4638L28.8427 24.4111L28.8848 24.369C29.0955 24.1688 29.3062 23.9687 29.5169 23.7685L29.5696 23.7158L29.6223 23.7685C30.0542 24.2637 30.1279 24.8536 29.833 25.433C29.4221 26.1705 28.5161 26.6972 27.9261 26.6972ZM27.4942 23.2102C27.5153 23.2102 27.5363 23.2102 27.5574 23.2207C27.7154 23.2523 27.8313 23.3155 27.8734 23.4209C27.9788 23.6526 27.7576 24.0108 27.5469 24.3479C27.0939 25.0749 26.8305 25.5384 27.0517 26.0019C27.136 26.1916 27.431 26.5076 27.8313 26.5498C28.3475 26.613 29.2957 26.0968 29.6855 25.3488C29.8751 24.9906 30.0015 24.4533 29.5485 23.8949C29.3694 24.0635 29.1903 24.2321 29.0218 24.4006C29.1798 24.5902 29.4326 25.0011 28.8216 25.5911C28.4213 25.9809 28.1052 25.9177 27.9893 25.8755C27.8208 25.8123 27.7154 25.6648 27.7049 25.4963C27.6943 25.3277 27.8418 25.0749 28.2 24.4849C28.4318 24.1056 28.6214 23.7685 28.6214 23.463C28.6214 23.1996 28.4213 22.8414 28.0525 22.6834C27.6101 22.4938 27.0728 22.6623 26.525 23.1575C26.072 23.6 25.6611 24.2637 26.2194 24.9695C26.388 24.8009 26.5566 24.6324 26.7251 24.4638C26.6619 24.3795 26.6198 24.2847 26.5987 24.1372C26.5671 23.8949 26.7462 23.6316 26.9253 23.463C27.1255 23.305 27.3256 23.2102 27.4942 23.2102ZM30.6968 24.7588L30.1069 24.1583L30.1595 24.1056C30.3492 23.9265 30.5283 23.758 30.7074 23.5789C31.0129 23.2839 31.3395 22.9784 31.6555 22.6834L31.1077 22.125C30.6547 22.5359 30.2017 22.9573 29.7487 23.3892L29.696 23.4314L29.1376 22.8625L29.1903 22.8098C29.6433 22.3884 30.0963 21.9565 30.5493 21.5456L30.0647 21.0505C29.5696 21.5035 29.0744 21.967 28.5793 22.4306L28.5266 22.4727L27.9472 21.8827L27.9999 21.8301C28.7268 21.1453 29.559 20.3762 30.286 19.7231L30.3386 19.6809L33.0883 22.42L33.0356 22.4727C32.6142 22.852 32.1717 23.2944 31.7293 23.7369C31.4132 24.053 31.0866 24.3795 30.7706 24.6745L30.6968 24.7588ZM30.307 24.1688L30.7074 24.5692C31.0023 24.2847 31.3079 23.9792 31.6134 23.6842C32.0348 23.2628 32.4667 22.8309 32.867 22.4727L30.3176 19.9232C29.6223 20.5448 28.8321 21.2717 28.1368 21.9354L28.5266 22.3252C29.0218 21.8617 29.5169 21.3981 30.0121 20.9451L30.0647 20.903L30.7495 21.5878L30.6968 21.6404C30.2438 22.0513 29.7908 22.4727 29.3378 22.9046L29.7065 23.2734C30.1595 22.8414 30.6125 22.42 31.0656 22.0092L31.1182 21.967L31.8662 22.715L31.8135 22.7677C31.4764 23.0732 31.1393 23.3998 30.8233 23.7053C30.6336 23.8528 30.4756 24.0108 30.307 24.1688ZM33.2042 21.6404C32.8987 21.6404 32.5931 21.5562 32.3087 21.3981C31.4975 20.9346 31.0234 19.9864 31.1077 19.407C31.1814 18.8592 31.4132 18.659 31.5607 18.5221L31.6871 18.4062C31.8557 18.2692 32.0348 18.1007 32.2139 17.9426C32.4456 17.7319 32.6985 17.5107 32.9092 17.3316L32.9619 17.2895L35.7536 20.1023L35.701 20.155C35.3322 20.471 34.953 20.7871 34.5737 21.1137C34.1313 21.4613 33.6677 21.6404 33.2042 21.6404ZM31.6766 18.6063L31.6555 18.6274C31.508 18.7538 31.3184 18.9329 31.2447 19.4281C31.1709 19.9548 31.645 20.8608 32.3824 21.2717C32.8565 21.5351 33.6045 21.7036 34.4789 20.9978C34.8371 20.6923 35.1953 20.3868 35.5535 20.0813L32.9513 17.4686C32.7512 17.6371 32.5299 17.8373 32.3087 18.0375C32.1296 18.206 31.9505 18.364 31.7819 18.501L31.6766 18.6063ZM36.6491 19.407L36.0592 18.8065L36.1224 18.7538C36.5859 18.3746 37.06 18.0058 37.513 17.6477L36.9441 17.0788C36.5332 17.4054 36.1118 17.7319 35.6904 18.0796L35.6378 18.1217L35.0689 17.5528L35.1321 17.5002C35.5535 17.163 35.9749 16.8259 36.3752 16.5099L35.8906 16.0147C35.4376 16.3624 34.9741 16.7311 34.5105 17.1104L34.4578 17.1525L33.8784 16.5626L33.9416 16.5099C34.6159 15.9621 35.2901 15.4353 35.9327 14.9402L36.017 14.8769C36.2172 14.7295 36.4068 14.582 36.607 14.4345L36.6491 14.4029L36.6913 14.4239C37.3234 14.7927 38.0187 15.2141 38.9352 15.7619C38.6929 15.33 38.2504 14.5714 37.7342 13.6865L37.7026 13.6338L37.7553 13.6022C37.9449 13.4653 38.1346 13.3388 38.3137 13.2019L38.3769 13.1597L38.3874 13.1492C38.5665 13.0228 38.7456 12.9069 38.9142 12.7805L39.0195 12.7067C39.6727 12.2643 40.3048 11.8639 40.8947 11.5057L40.9369 11.4741L41.5374 12.0852L41.4636 12.1273C41.274 12.2432 41.0738 12.3696 40.8737 12.496L43.065 14.7189L42.9912 14.7611C42.8227 14.8664 42.6541 14.9718 42.4855 15.0876L42.4434 15.1193L40.2521 12.9174C40.0414 13.0544 39.8202 13.2019 39.5989 13.3494L39.5568 13.3704L41.7481 15.5723L41.6743 15.6144C41.4952 15.7303 41.3267 15.8567 41.1476 15.9831L41.0949 16.0147L38.4928 13.3915C39.0406 14.3397 39.5673 15.2457 40.2837 16.5099L40.3153 16.5626L40.2626 16.5942C40.0519 16.7416 39.8518 16.8997 39.6411 17.0472L39.6095 17.0788L39.5673 17.0577C38.4611 16.4045 37.5341 15.8672 36.1329 15.056L38.7667 17.7109L38.7035 17.7635C38.0397 18.2692 37.3655 18.8065 36.6807 19.3543L36.6491 19.407ZM36.2593 18.817L36.6597 19.2174C37.3023 18.6906 37.9449 18.1849 38.5665 17.7109L35.9643 15.0982C35.3533 15.5723 34.7107 16.0674 34.0786 16.5836L34.4684 16.9734C34.9319 16.5942 35.3955 16.2254 35.8485 15.8778L35.9011 15.8356L36.5859 16.5204L36.5227 16.5731C36.1118 16.8891 35.701 17.2263 35.2796 17.5634L35.6483 17.9321C36.0697 17.595 36.4911 17.2579 36.9125 16.9313L36.9652 16.8891L37.7237 17.6582L37.6605 17.7109C37.1969 18.0691 36.7229 18.4378 36.2593 18.817ZM36.1856 14.9402C37.5762 15.7408 38.5033 16.2886 39.6095 16.9313C39.7886 16.7943 39.9677 16.6679 40.1468 16.5415C39.4198 15.2667 38.8931 14.3502 38.3242 13.381C38.1767 13.4863 38.0292 13.5917 37.8712 13.697C38.4717 14.7295 38.9563 15.5828 39.1565 15.9304L39.304 16.1938L39.0722 16.0569C38.0714 15.4564 37.3128 15.0034 36.6386 14.603C36.4911 14.6979 36.3331 14.8137 36.1856 14.9402ZM38.5244 13.2335L41.116 15.8462C41.2529 15.7514 41.3899 15.6565 41.5268 15.5617L38.9352 12.949C38.7983 13.0333 38.6613 13.1281 38.5244 13.2335ZM40.2732 12.7383L42.4645 14.9402C42.5909 14.8559 42.7173 14.7716 42.8437 14.6979L40.6524 12.496L40.7262 12.4539C40.9263 12.3275 41.1265 12.201 41.3161 12.0852L40.9158 11.6848C40.3575 12.022 39.7675 12.4012 39.1565 12.8121L39.5568 13.2229C39.778 13.0755 39.9993 12.928 40.21 12.791L40.2732 12.7383ZM43.1387 14.6873L43.1071 14.6241C42.5277 13.6233 41.9904 12.6857 41.2319 11.4109L41.2003 11.3477L41.2635 11.3161C41.4215 11.2213 41.5795 11.1265 41.7375 11.0422L41.7691 11.0211L41.8008 11.0422C42.9069 11.7691 43.8762 12.4012 45.2668 13.3494L45.3089 13.381L44.7295 12.8015L44.8138 12.7594C45.1404 12.5908 45.4459 12.4434 45.7514 12.3064L45.193 11.748C44.9191 11.8745 44.6241 12.0114 44.3186 12.1694L44.2765 12.1905L43.7076 11.6216L43.7919 11.5795C44.0763 11.432 44.3502 11.295 44.6241 11.1792L44.1395 10.6945C43.834 10.8315 43.518 10.9895 43.1808 11.1581L43.1387 11.1792L42.5487 10.5892L42.633 10.547C43.1282 10.2942 43.5917 10.073 44.0236 9.89388L44.0658 9.87281L46.8681 12.6962L46.7733 12.7383C46.3414 12.9174 45.8673 13.1387 45.3721 13.3915L45.33 13.4126L45.3511 13.4231L45.2457 13.4758C45.0982 13.5495 44.9507 13.6338 44.7927 13.7181L44.7611 13.7392L44.7295 13.7181C44.4872 13.5495 44.2449 13.3915 43.992 13.2229C43.7708 13.3494 43.539 13.4758 43.3073 13.6127C43.4442 13.8234 43.5706 14.0447 43.6971 14.2554L43.7287 14.3186L43.6655 14.3502C43.4969 14.445 43.3283 14.5504 43.1598 14.6557L43.1387 14.6873ZM41.3899 11.4004C42.1168 12.6224 42.633 13.5285 43.1914 14.4977C43.3178 14.4134 43.4548 14.3397 43.5812 14.2659C43.4548 14.0552 43.3178 13.834 43.1808 13.6233L43.1492 13.5601L43.2124 13.5285C43.4758 13.3704 43.7392 13.2229 43.992 13.086L44.0342 13.0649L44.0658 13.086C44.3081 13.2546 44.5504 13.4126 44.8032 13.5811C44.9086 13.5285 45.0139 13.4653 45.1088 13.4126C43.7813 12.5171 42.8437 11.8955 41.7691 11.2002C41.6427 11.2529 41.5163 11.3266 41.3899 11.4004ZM44.9718 12.8437L45.3616 13.244C45.8041 13.0122 46.236 12.8121 46.6363 12.6435L44.0447 10.0414C43.6549 10.2099 43.2335 10.3996 42.791 10.6313L43.1703 11.0211C43.5074 10.8526 43.8235 10.6945 44.129 10.5576L44.1711 10.5365L44.8664 11.2318L44.7716 11.274C44.5083 11.3899 44.2238 11.5268 43.9394 11.6638L44.2976 12.0325C44.6031 11.8745 44.898 11.7375 45.172 11.6111L45.2141 11.59L45.9832 12.3591L45.8883 12.4012C45.6144 12.5276 45.2984 12.6751 44.9718 12.8437Z" fill="#010101"/>
<path d="M19.6133 16.2677L17.8539 25.7387L14.3352 22.22L15.6626 16.4047L13.977 16.4468L11.259 19.1438L8.48828 16.3731L17.6748 7.18652L20.4561 9.97831L18.5808 11.8219C17.7064 12.6963 17.9593 12.4119 17.1375 13.1915L23.0266 12.5489L26.5137 16.0359L19.6133 16.2677Z" fill="#010101"/>
<path d="M25.4708 33.3556L18.5703 26.4551L27.7569 17.2686L30.5802 20.0919L23.7957 26.8765L27.8727 30.9536L25.4708 33.3556Z" fill="#010101"/>
<path d="M49.6468 39.1604C52.4596 41.9733 52.5755 45.492 49.71 48.3575C46.6548 51.4127 43.41 51.2968 40.4075 48.2943L36.3516 44.2383L45.5381 35.0518L49.6468 39.1604ZM41.44 44.6808L42.5462 45.7869C43.9262 47.167 45.4749 46.9879 46.855 45.6079C48.4142 44.0487 48.2772 42.4052 46.8339 40.9619L45.9911 40.1191L41.44 44.6808Z" fill="#010101"/>
<path d="M12.848 47.7466C12.7321 47.7466 12.4477 47.7466 14.1017 49.369C15.7662 50.9914 15.7873 50.5805 15.7767 50.4857C15.7557 50.3066 15.5134 49.98 15.0603 49.4849C14.9761 49.4954 14.8812 49.4954 14.8075 49.4954C15.2289 49.9484 15.2289 50.0327 15.1973 50.0854C15.1341 50.0959 15.0077 50.1064 14.2808 49.4217C14.2702 49.4111 13.1956 48.3892 13.2799 48.2628C13.2799 48.2628 13.3958 48.1469 14.0384 48.7369C14.1227 48.7369 14.207 48.7369 14.2913 48.7263C13.4906 47.9573 12.9744 47.7571 12.848 47.7466Z" fill="#010101"/>
<path d="M15.0089 48.9899L14.2609 48.2419C14.3557 48.2208 14.4611 48.2103 14.5559 48.1787C14.7244 48.1471 14.8719 48.1998 15.0721 48.3789C15.0721 48.3789 15.504 48.7476 15.3881 48.8845C15.3565 48.9162 15.3144 48.9267 15.2828 48.9372C15.1985 48.9583 15.1037 48.9688 15.0089 48.9899ZM14.1871 47.6941C13.9448 47.7468 13.7236 47.7889 13.5234 47.81L16.2204 50.5175C16.3152 50.5069 16.41 50.4964 16.5048 50.4753L15.4513 49.4113C15.5356 49.4008 15.6304 49.3797 15.7147 49.3586C15.7885 49.3481 15.9149 49.327 16.1361 49.485C16.4943 49.7379 16.7577 50.0855 17.1053 50.3384C17.2212 50.3068 17.3371 50.2752 17.453 50.233C17.3371 50.1698 17.1896 50.0434 16.863 49.7273C16.4311 49.3165 16.1467 49.0847 15.8938 49.0531C15.9676 48.6844 14.8298 47.5571 14.1871 47.6941Z" fill="#010101"/>
<path d="M16.1564 46.9775C15.7034 47.1882 15.2714 47.3568 14.8711 47.4938L17.5681 50.2013C17.9684 50.0643 18.4003 49.8957 18.8639 49.685L18.3687 49.1899C18.0421 49.3374 17.7261 49.4743 17.4206 49.5902L16.7569 48.9265C17.0308 48.8212 17.3152 48.7053 17.6102 48.5789L17.1467 48.1153C16.8517 48.2523 16.5672 48.3682 16.2933 48.463L15.7034 47.873C15.9983 47.7677 16.3039 47.6307 16.6304 47.4832L16.1564 46.9775Z" fill="#010101"/>
<path d="M18.6119 48.2629C18.2642 47.7361 18.2221 47.6624 17.8744 47.1146C18.2958 47.4095 18.7172 47.694 19.1386 47.989C18.9595 48.0838 18.791 48.1786 18.6119 48.2629ZM17.4425 46.335C17.295 46.4192 17.137 46.493 17 46.5667C17.611 47.5254 18.1799 48.4104 18.9806 49.6324C19.1175 49.5692 19.2545 49.506 19.402 49.4323C19.2545 49.2005 19.107 48.9793 18.9595 48.7475C19.2018 48.6316 19.4441 48.5052 19.697 48.3682C19.9498 48.5368 20.2026 48.7159 20.4555 48.8844C20.6135 48.8002 20.7715 48.7054 20.9296 48.6105C19.9814 48.01 18.9068 47.3147 17.4425 46.335Z" fill="#010101"/>
<path d="M19.5812 45.0708C18.9596 45.4711 18.3591 45.8293 17.8008 46.1348L18.3065 46.6405C18.5172 46.5246 18.7279 46.4088 18.9386 46.2823L21.1298 48.4842C21.2879 48.3893 21.4459 48.2945 21.6039 48.1997L19.4126 45.9979C19.6339 45.8609 19.8551 45.724 20.0869 45.5765L19.5812 45.0708Z" fill="#010101"/>
<path d="M20.1932 44.6704C20.0246 44.7863 19.8561 44.8916 19.6875 44.997L22.3845 47.7045C22.553 47.5992 22.7216 47.4833 22.8902 47.3779L20.1932 44.6704Z" fill="#010101"/>
<path d="M22.4792 43.0898C22.2895 43.2268 22.0999 43.3638 21.9103 43.5007C22.2895 44.1644 22.6583 44.7965 23.2482 45.7973C22.7952 45.5129 21.9629 44.9967 20.8146 44.2698C20.6355 44.3962 20.4564 44.5121 20.2773 44.628C21.4257 45.3549 22.3211 45.9238 23.7539 46.8192C23.9541 46.6823 24.1542 46.5453 24.3544 46.3978C23.7328 45.3338 23.2377 44.4489 22.4792 43.0898Z" fill="#010101"/>
<path d="M24.4892 41.5518C23.8255 42.068 23.1829 42.5631 22.5508 43.0267L25.2477 45.7342C25.8904 45.2706 26.5436 44.7649 27.2178 44.2382L26.7226 43.743C26.2486 44.1223 25.7745 44.4805 25.311 44.8282L24.6472 44.1644C25.0687 43.8484 25.4901 43.5323 25.922 43.1952L25.4584 42.7317C25.0265 43.0688 24.6051 43.3954 24.1837 43.7009L23.5937 43.1109C24.0468 42.7738 24.5103 42.4156 24.9844 42.0469L24.4892 41.5518Z" fill="#010101"/>
<path d="M28.4832 42.3315L26.7765 40.6143C26.924 40.4984 27.0715 40.372 27.219 40.2455C28.3884 39.3501 29.3576 40.825 29.3155 41.3201C29.2944 41.6362 29.0521 41.8469 28.9257 41.9627C28.7782 42.0892 28.6307 42.2156 28.4832 42.3315ZM26.7976 39.6872C26.4289 40.0032 26.0601 40.2982 25.6914 40.6037L28.3884 43.3112C28.7571 43.0162 29.1258 42.7107 29.4946 42.3947C31.138 40.8987 29.1574 39.2552 28.1461 39.1815C27.4718 39.1499 26.9767 39.5397 26.7976 39.6872Z" fill="#010101"/>
<path d="M30.537 36.4004C29.8207 37.0641 29.1043 37.6962 28.3984 38.3178L31.0954 41.0253C31.8118 40.4037 32.5282 39.7505 33.2656 39.0868L32.7705 38.5917C32.2543 39.0658 31.738 39.5398 31.2218 39.9928L30.5581 39.3291C31.0217 38.9183 31.4852 38.4969 31.9593 38.0755L31.4957 37.6119C31.0322 38.0439 30.5581 38.4547 30.0946 38.8656L29.5046 38.2756C30.0103 37.8332 30.516 37.3696 31.0217 36.9061L30.537 36.4004Z" fill="#010101"/>
<path d="M41.3565 25.0014C40.3346 26.3183 41.3565 27.2243 41.957 27.1716C42.2309 27.1506 42.4732 26.9925 42.9157 26.7081C43.2633 26.4869 43.4951 26.3394 43.6215 26.3499C43.8849 26.371 44.2009 26.7924 43.769 27.3086C43.2844 27.8986 42.8946 27.5509 42.7366 27.4139C42.568 27.6141 42.3995 27.8143 42.2204 28.0144C43.4846 29.1522 44.6434 27.4877 44.6329 26.687C44.6223 26.0233 44.0745 25.6546 44.064 25.6441C43.5583 25.3175 43.1685 25.5598 42.5153 26.0023C42.1677 26.2446 41.7252 26.5395 41.5988 26.0233C41.5251 25.7073 41.9254 25.1384 42.3468 25.2227C42.4521 25.2437 42.568 25.3385 42.6102 25.3702C42.7682 25.1805 42.9157 24.9909 43.0632 24.8118C42.4732 24.2956 41.8938 24.3483 41.3565 25.0014Z" fill="#010101"/>
<path d="M44.074 21.6616C43.9265 21.8618 43.7685 22.0725 43.6104 22.2832C43.8106 22.831 43.9686 23.2735 44.2215 23.9793C43.5999 23.7897 43.3681 23.716 42.6623 23.5053C42.4832 23.7265 42.3041 23.9477 42.125 24.169C42.8098 24.3481 43.5156 24.5377 44.5691 24.8327L45.6226 25.8862C45.7701 25.6965 45.9176 25.5069 46.0651 25.3173L45.0327 24.2743C44.7482 23.5263 44.4954 22.8099 44.074 21.6616Z" fill="#010101"/>
<path d="M45.6663 19.46C45.5504 19.6285 45.4345 19.7971 45.3187 19.9656L47.1201 21.7777C46.6566 21.6196 45.7927 21.3352 44.6023 20.9665C44.4653 21.1561 44.3284 21.3352 44.1914 21.5248L46.8884 24.2323C47.0253 24.0532 47.1518 23.8741 47.2782 23.7056L45.4767 21.883C45.9929 22.041 46.8568 22.315 48.0051 22.6942C48.1315 22.5151 48.2474 22.3466 48.3633 22.178L45.6663 19.46Z" fill="#010101"/>
<path d="M48.414 20.8609L46.7073 19.1437C46.781 19.0173 46.8653 18.9014 46.939 18.7855C47.5501 17.9322 48.7089 19.4387 48.7721 19.976C48.8037 20.2288 48.7195 20.3869 48.6457 20.5027C48.572 20.6186 48.4877 20.7345 48.414 20.8609ZM46.4755 18.2272C46.2859 18.5327 46.0857 18.8382 45.875 19.1437L48.572 21.8512C48.7827 21.5352 48.9828 21.2297 49.1725 20.9347C49.9942 19.4598 47.7292 17.5635 46.9601 17.8163C46.6967 17.8901 46.5282 18.1429 46.4755 18.2272Z" fill="#010101"/>
<path d="M47.4872 16.5205C47.4029 16.668 47.3187 16.8155 47.2344 16.9735L49.9313 19.681C50.0156 19.523 50.0999 19.3755 50.1842 19.228L47.4872 16.5205Z" fill="#010101"/>
<path d="M48.0164 15.3302C47.4896 16.6681 49.7441 18.7646 50.5448 18.4591C50.5553 18.4591 51.6194 17.9956 50.0918 16.2678C50.0391 16.3942 49.9864 16.5207 49.9232 16.6471C50.7239 17.5847 50.2393 17.8375 50.0496 17.827C49.3649 17.7638 48.0691 16.1519 48.5853 15.7411C48.7749 15.5936 49.0699 15.8253 49.1752 15.9096C49.2384 15.7832 49.2911 15.6568 49.3438 15.5304C48.4167 14.7086 48.0901 15.1616 48.0164 15.3302Z" fill="#010101"/>
<path d="M50.2985 15.7514C49.993 15.3405 49.677 14.9402 49.3715 14.5293C49.7296 14.8032 49.9403 14.9613 50.446 15.33C50.4039 15.4669 50.3512 15.6144 50.2985 15.7514ZM48.771 13.6865C48.7288 13.8024 48.6972 13.9183 48.6445 14.0447C49.2977 14.9297 50.0457 15.9516 51.0887 17.4054C51.1413 17.279 51.194 17.142 51.2467 17.0261C51.0676 16.7838 50.878 16.531 50.6989 16.2887C50.7726 16.0885 50.8464 15.8883 50.899 15.6987C51.1097 15.8567 51.3204 16.0253 51.5311 16.1833C51.5627 16.0674 51.5943 15.9516 51.6154 15.8462C50.7621 15.172 49.9403 14.5504 48.771 13.6865Z" fill="#010101"/>
<path d="M49.0568 12.3066C49.0463 12.6332 48.9725 12.9914 48.8672 13.3917L49.3729 13.8974C49.415 13.7499 49.4466 13.613 49.4782 13.476L51.6695 15.6778C51.6906 15.5725 51.7116 15.4777 51.7222 15.3829L49.5309 13.181C49.552 13.0546 49.5625 12.9282 49.5625 12.8123L49.0568 12.3066Z" fill="#010101"/>
<path d="M48.9727 11.4639C49.0464 11.6851 49.078 11.9379 49.0675 12.2224L51.7644 14.9299C51.775 14.6349 51.7434 14.3821 51.6591 14.1608L51.1639 13.6657C51.2166 13.8237 51.2482 13.9923 51.2588 14.1924L50.595 13.5287C50.5845 13.3496 50.5529 13.1916 50.5108 13.0547L50.0472 12.5911C50.0894 12.7386 50.121 12.8966 50.1315 13.0652L49.5415 12.4752C49.531 12.2856 49.4994 12.117 49.4467 11.959L48.9727 11.4639Z" fill="#010101"/>
<path d="M46.6563 10.273C46.7511 10.252 46.8565 10.2309 46.9408 10.2203C46.8565 10.115 46.5931 9.80948 46.709 9.7252C46.9829 9.52503 48.6264 11.179 48.6474 11.4845C48.6474 11.4845 48.5842 11.8111 47.6888 10.9789C47.5939 10.9894 47.4991 11.0105 47.3938 11.0315C48.7739 12.3168 49.1847 12.0324 49.1847 12.0218C49.4165 11.8217 48.3735 10.7892 47.9205 10.3468C47.1409 9.60932 46.5826 9.21952 46.2455 9.20898C46.0453 9.24059 45.9821 9.53557 46.6563 10.273Z" fill="#010101"/>
<path d="M45.6955 9.98861L46.0748 10.3679L46.433 10.7261C46.4541 10.7155 46.4751 10.7155 46.4857 10.705L46.433 10.7261L46.8544 11.1475L47.3917 11.6847L47.9184 12.2115C48.0238 12.1799 48.1818 12.1378 48.2872 12.1167L45.5902 9.40918C45.4638 9.44078 45.3374 9.47239 45.2109 9.50399L45.6955 9.98861Z" fill="#010101"/>
<path d="M40.6102 31.6906C40.4206 31.8908 40.2309 32.1015 40.0413 32.3017L37.3443 29.5942C37.5445 29.3835 37.7447 29.1622 37.9448 28.9515C38.7139 29.1201 39.346 29.2571 39.8517 29.3729L38.6296 28.1509L26.0508 33.9451L28.9058 36.8001L30.3385 36.1048L30.6651 35.9468L31.9609 37.2426L32.6562 37.9379L33.2251 38.5068L33.3937 38.6754L33.6255 38.9071L33.478 39.2021L32.7721 40.656L35.6271 43.5109L41.4319 30.9427L41.1053 30.6161L40.7998 30.3106C40.2731 30.1947 39.5988 30.0472 38.8087 29.8786L40.6102 31.6906ZM34.8159 37.6219C34.4367 37.9906 33.931 38.2434 33.4148 38.1592C33.1619 38.117 32.8985 38.0011 32.6457 37.7694C32.7089 37.7061 32.7827 37.6429 32.8459 37.5797C32.9828 37.4533 33.1303 37.3164 33.2778 37.1794C33.4358 37.3164 33.794 37.6219 34.3629 37.1373C34.3735 37.1267 34.384 37.1162 34.3945 37.1057C35.0266 36.5473 34.6474 36.1259 34.4367 36.1048C34.2786 36.0838 34.1206 36.1575 33.7519 36.3577C33.6887 36.3893 33.6149 36.4314 33.5412 36.4735C33.0144 36.758 32.6773 36.9371 32.3191 36.916C32.2664 36.916 32.2032 36.9055 32.14 36.8844C31.8661 36.8001 31.5395 36.5473 31.4342 36.1786C31.3288 35.8204 31.4342 35.3358 32.0031 34.7669C32.0663 34.7037 32.14 34.6405 32.2243 34.5772C32.572 34.3033 33.0144 34.1137 33.478 34.2612C33.6465 34.3139 33.8151 34.4087 33.9837 34.5562C33.9521 34.5878 33.9099 34.6299 33.8783 34.6615C33.7097 34.8195 33.5517 34.9776 33.3832 35.1356C33.2883 35.0619 33.2041 35.0092 33.046 34.9881C32.9302 34.9776 32.7932 35.0092 32.6668 35.0829C32.3823 35.241 32.1295 35.5675 32.1611 35.7993C32.2454 36.3261 32.7721 36.0205 33.1935 35.7782C33.2146 35.7677 33.2251 35.7572 33.2462 35.7466C33.7097 35.4833 34.1101 35.262 34.4788 35.241C34.6368 35.2304 34.7843 35.2515 34.9318 35.3252C35.0372 35.3779 35.1952 35.5043 35.3111 35.6624C35.4059 35.7993 35.4902 35.9679 35.5112 36.1575C35.5534 36.5894 35.2689 37.1794 34.8159 37.6219ZM36.333 36.0205C36.3014 36.0522 36.2592 36.0943 36.2171 36.1259L35.4586 35.3674L34.0258 33.9241L33.5201 33.4184C33.7308 33.2077 33.952 32.997 34.1628 32.7863L34.8686 33.4921L35.901 34.5351L36.6069 35.2515L36.8492 35.5043C36.6912 35.6729 36.5121 35.852 36.333 36.0205ZM39.4092 32.9022C39.3038 32.8284 39.1564 32.7336 39.0405 32.6599C39.1142 33.8398 37.9975 34.4508 37.3865 34.5035C37.2284 34.514 37.0704 34.5035 36.9019 34.4719C36.6279 34.4192 36.354 34.3033 36.1117 34.1348C35.7851 33.9135 35.5218 33.608 35.3532 33.2393C35.2163 32.9338 35.153 32.5861 35.2057 32.2174C35.2584 31.8276 35.448 31.4167 35.8062 31.0164C36.0485 30.7636 36.9124 30.005 37.9448 30.7214C37.7552 30.9216 37.555 31.1323 37.3549 31.343C37.0072 31.1323 36.6701 31.1744 36.354 31.4694C36.1855 31.6274 36.0801 31.796 36.0169 31.9646C35.9221 32.2595 35.9853 32.5651 36.1328 32.839C36.2382 33.0286 36.3751 33.1972 36.5437 33.3446C36.7438 33.5237 36.9756 33.6502 37.1863 33.7028C37.239 33.7134 37.2811 33.7239 37.3338 33.7239C38.0186 33.7766 38.914 32.9022 38.2187 32.0699C38.008 32.2911 37.8816 32.4281 37.6604 32.6493L37.5972 32.5861L37.2284 32.2069C37.534 31.8908 37.7973 31.6169 38.0818 31.3114C38.1555 31.2271 38.2398 31.1428 38.3241 31.0585L39.7779 32.5229C39.6726 32.6388 39.5462 32.7652 39.4092 32.9022Z" fill="#010101"/>
<path d="M39.5451 27.1714C39.366 27.3716 39.1869 27.5717 39.0078 27.7719L40.8093 29.5839C40.6618 29.5523 40.4827 29.5102 40.2826 29.468C40.1456 29.4364 39.9981 29.4048 39.8506 29.3732L40.1561 29.6787L40.7882 30.3108C40.9463 30.3424 41.0832 30.374 41.2202 30.4056C41.4098 30.4478 41.5678 30.4794 41.6837 30.511C41.8733 30.3003 42.0524 30.1001 42.2421 29.8894L39.5451 27.1714Z" fill="#010101"/>
</g>
<rect width="60" height="60" fill="white" fill-opacity="0.01"/>
<defs>
<clipPath id="clip0_3001_10099">
<rect width="47.6289" height="47.6289" fill="white" transform="translate(4.94922 6.18555)"/>
</clipPath>
</defs>
</svg>
