<svg width="97" height="78" viewBox="0 0 97 78" fill="none" xmlns="http://www.w3.org/2000/svg">
    <g>
        <path d="M19.8506 7.03955C20.1317 6.63532 20.6875 6.53491 21.0918 6.81592L25.6826 10.0073C26.087 10.2884 26.1873 10.8442 25.9062 11.2485L23.9307 14.0913C23.4725 14.7511 24.0524 15.6333 24.8398 15.4741L31.2119 14.1851C31.4501 14.1369 31.6979 14.188 31.8975 14.3267L41.998 21.3472C42.4024 21.6282 42.5027 22.184 42.2217 22.5884L34.335 33.9351C34.0539 34.3394 34.1542 34.8952 34.5586 35.1763L37.5488 37.2544L37.8311 37.4507L80.1094 8.06689C80.5137 7.78628 81.0679 7.8868 81.3467 8.29248L89.6338 20.353C89.9123 20.7586 89.8109 21.3151 89.4072 21.5962L65.5176 38.1997L70.1064 41.3892C70.4113 41.6011 70.5528 41.9804 70.4619 42.3403L67.3574 54.6343C67.1145 55.5961 68.3879 56.1763 68.9541 55.3618L75.3682 46.1323C75.6492 45.728 76.205 45.6278 76.6094 45.9087L83.6445 50.7983C86.518 52.7956 88.3487 55.2233 88.8555 58.1138C89.3699 60.9728 88.5563 63.8119 86.6416 66.5669C84.7264 69.3225 82.3457 71.0788 79.4814 71.6099L79.4746 71.6118C76.598 72.1293 73.6894 71.2511 70.8164 69.2544L64.7334 65.0259L58.7959 60.8999C58.482 60.6818 58.3413 60.2877 58.4473 59.9204L59.1025 57.6519C59.2085 57.2847 59.0686 56.8905 58.7549 56.6724L54.6299 53.8052C54.3141 53.5858 53.8934 53.5939 53.5859 53.8247L51.7119 55.2319C51.4044 55.4629 50.9828 55.471 50.667 55.2515L45.9268 51.9565C45.8928 51.9329 45.8614 51.9073 45.832 51.8804L17.8037 71.3618C17.3995 71.6425 16.8453 71.5417 16.5664 71.1362L8.2793 59.0757C8.00052 58.67 8.10194 58.1137 8.50586 57.8325L31.8076 41.6362L28.0615 39.0327L19.167 32.8511C18.9221 32.6808 18.7783 32.3992 18.7842 32.1011L18.9424 24.2798C18.9535 23.7191 18.45 23.288 17.8975 23.3843L17.7803 23.4038C17.5457 23.4447 17.3371 23.5784 17.2012 23.7739L14.0967 28.2407C13.8157 28.6451 13.2598 28.7453 12.8555 28.4644L8.26367 25.2729C7.85937 24.992 7.75916 24.4361 8.04004 24.0317L19.8506 7.03955ZM18.9502 55.019C18.0156 54.9541 16.9772 55.3184 15.8369 56.1108C14.769 56.8531 14.0988 57.6581 13.8281 58.5249C13.5657 59.3863 13.7039 60.2088 14.2412 60.9907C15.255 62.4654 16.8282 62.6997 18.9609 61.6938L19.752 61.3413C20.4315 61.0357 20.9259 60.8824 21.2344 60.8823C21.5452 60.8688 21.8007 61.0073 22 61.2974C22.4541 61.9583 22.1951 62.6269 21.2236 63.3022C20.5976 63.7373 20.0594 63.9567 19.6104 63.9595C19.1692 63.9564 18.7613 63.6909 18.3877 63.1646L16.4121 64.5386C17.0738 65.4838 17.9127 65.9968 18.9287 66.0767C19.9447 66.1564 21.0515 65.7802 22.248 64.9487C23.3883 64.1562 24.1201 63.3022 24.4414 62.3882C24.7624 61.4743 24.6212 60.5772 24.0176 59.6987C23.5135 58.9652 22.8823 58.5579 22.126 58.4761C21.3722 58.3808 20.4132 58.6007 19.25 59.1353L18.4355 59.5044C17.8179 59.7789 17.3475 59.9149 17.0254 59.9126C16.7114 59.9046 16.4543 59.7554 16.2549 59.4653C15.8561 58.885 16.0945 58.2905 16.9697 57.6821C17.5157 57.3027 17.9804 57.1227 18.3623 57.1431C18.752 57.1581 19.1031 57.367 19.415 57.769L21.3428 56.4292C20.6823 55.5546 19.8846 55.0842 18.9502 55.019ZM78.8691 55.5806C78.4648 55.2995 77.909 55.3989 77.6279 55.8032L73.4111 61.8706C73.1301 62.275 73.2304 62.8308 73.6348 63.1118L74.5439 63.7446C75.7275 64.5672 76.7054 64.751 77.5537 64.564H77.5557C78.4389 64.3694 79.4127 63.7042 80.4258 62.2466C81.4402 60.7868 81.7138 59.6557 81.583 58.7837L81.5791 58.7583C81.4653 57.885 80.9569 57.0308 79.7793 56.2124L78.8691 55.5806ZM25.5576 49.6567L25.6816 51.3931C25.7518 52.2376 25.848 53.2318 25.9688 54.3745C25.8843 54.338 25.7798 54.2905 25.6572 54.2329C25.5347 54.1753 25.3698 54.0994 25.1631 54.0054C24.9641 53.9056 24.7899 53.817 24.6426 53.7407C24.3263 53.5913 23.8681 53.374 23.2686 53.0884L21.666 52.3618L19.3643 53.9614L26.1963 56.9858L28.498 60.3354L30.5342 58.9194L28.2324 55.5698L27.7979 48.0991L25.5576 49.6567ZM33.8057 43.9077L35.0439 45.7095C36.1075 47.2571 37.0406 48.5801 37.8428 49.6782C37.1548 49.2988 36.166 48.8186 34.877 48.2378L30.4199 46.2603L28.2275 47.7847L34.1445 56.394L36.084 55.0464L34.8457 53.2446C33.7821 51.6969 32.8546 50.3814 32.0635 49.2993C32.6504 49.618 33.6336 50.0909 35.0127 50.7163L39.4697 52.6929L41.6621 51.1694L35.7461 42.5591L33.8057 43.9077ZM44.6123 38.0933C43.3311 37.8522 41.9829 38.2232 40.5693 39.2056L37.0518 41.6509L42.9688 50.2603L46.4863 47.8149C47.8996 46.8326 48.7237 45.6998 48.958 44.4175C49.1866 43.1271 48.839 41.8084 47.9141 40.4624C46.989 39.1162 45.8879 38.3264 44.6123 38.0933ZM41.7217 40.9595C42.4604 40.4462 43.1766 40.2705 43.8691 40.4321C44.5642 40.5803 45.2059 41.0818 45.793 41.936C46.38 42.7903 46.6228 43.5752 46.5205 44.2896C46.4205 44.9901 46.0004 45.5974 45.2617 46.1108L43.8164 47.1157L40.2764 41.9644L41.7217 40.9595ZM45.8994 35.5015L51.8164 44.1118L53.8525 42.6968L47.9355 34.0864L45.8994 35.5015ZM56.4502 29.1255C55.3237 29.0748 54.2299 29.4182 53.1699 30.1548C51.8609 31.0646 51.0971 32.1909 50.8799 33.5327C50.6629 34.8746 51.0308 36.2392 51.9834 37.6255C52.9252 38.9958 54.0704 39.8154 55.417 40.0825C56.7633 40.3493 58.0757 40.0392 59.3525 39.1519C60.4446 38.3927 61.1582 37.4433 61.4922 36.3062C61.8178 35.1746 61.6621 34.0076 61.0264 32.8062L58.9902 34.2212C59.2704 34.8362 59.3317 35.4258 59.1729 35.9888C59.0139 36.5517 58.6685 37.0179 58.1387 37.3862C57.4481 37.866 56.75 37.9997 56.0459 37.7866C55.3497 37.5677 54.7027 37.0223 54.1045 36.1519C53.5063 35.2814 53.228 34.4799 53.2705 33.7476C53.3212 33.0097 53.6922 32.4004 54.3828 31.9204C54.8887 31.5689 55.4065 31.4062 55.9346 31.4321C56.465 31.4446 56.9612 31.6473 57.4219 32.0415L59.4814 30.6099C58.6088 29.6682 57.5983 29.1732 56.4502 29.1255ZM60.4424 25.4272L63.2021 36.23L65.2871 34.7817L64.75 32.939L68.3164 30.4604L69.8535 31.6079L72.0098 30.1089L62.8643 23.7437L60.4424 25.4272ZM32.6211 20.8022L26.8887 21.8843C26.471 21.9632 26.1676 22.3264 26.1631 22.7515L26.085 30.0278C26.076 30.9057 27.2079 31.2664 27.709 30.5454L33.5186 22.187C33.974 21.5317 33.4053 20.6541 32.6211 20.8022ZM62.8398 26.3511C63.8668 27.1376 64.6068 27.6956 65.0586 28.0249L66.5664 29.1577L64.1445 30.8403L63.625 29.022C63.5789 28.8512 63.317 27.9605 62.8398 26.3511ZM64.8311 22.3442L66.0859 24.1704L68.7129 22.3442L73.375 29.1284L75.4229 27.7046L70.7607 20.9214L73.3994 19.0874L72.1445 17.2612L64.8311 22.3442ZM72.9023 16.7349L78.8193 25.3442L85.3613 20.7974L84.1064 18.9712L79.6006 22.103L78.4453 20.4224L82.5537 17.5669L81.374 15.8501L77.2656 18.7056L76.1934 17.145L80.7119 14.0054L79.457 12.1792L72.9023 16.7349Z"
              fill="#010101"/>
    </g>
    <g>
        <path d="M19.8506 7.03955C20.1317 6.63532 20.6875 6.53491 21.0918 6.81592L25.6826 10.0073C26.087 10.2884 26.1873 10.8442 25.9062 11.2485L23.9307 14.0913C23.4725 14.7511 24.0524 15.6333 24.8398 15.4741L31.2119 14.1851C31.4501 14.1369 31.6979 14.188 31.8975 14.3267L41.998 21.3472C42.4024 21.6282 42.5027 22.184 42.2217 22.5884L34.335 33.9351C34.0539 34.3394 34.1542 34.8952 34.5586 35.1763L37.5488 37.2544L37.8311 37.4507L80.1094 8.06689C80.5137 7.78628 81.0679 7.8868 81.3467 8.29248L89.6338 20.353C89.9123 20.7586 89.8109 21.3151 89.4072 21.5962L65.5176 38.1997L70.1064 41.3892C70.4113 41.6011 70.5528 41.9804 70.4619 42.3403L67.3574 54.6343C67.1145 55.5961 68.3879 56.1763 68.9541 55.3618L75.3682 46.1323C75.6492 45.728 76.205 45.6278 76.6094 45.9087L83.6445 50.7983C86.518 52.7956 88.3487 55.2233 88.8555 58.1138C89.3699 60.9728 88.5563 63.8119 86.6416 66.5669C84.7264 69.3225 82.3457 71.0788 79.4814 71.6099L79.4746 71.6118C76.598 72.1293 73.6894 71.2511 70.8164 69.2544L64.7334 65.0259L58.7959 60.8999C58.482 60.6818 58.3413 60.2877 58.4473 59.9204L59.1025 57.6519C59.2085 57.2847 59.0686 56.8905 58.7549 56.6724L54.6299 53.8052C54.3141 53.5858 53.8934 53.5939 53.5859 53.8247L51.7119 55.2319C51.4044 55.4629 50.9828 55.471 50.667 55.2515L45.9268 51.9565C45.8928 51.9329 45.8614 51.9073 45.832 51.8804L17.8037 71.3618C17.3995 71.6425 16.8453 71.5417 16.5664 71.1362L8.2793 59.0757C8.00052 58.67 8.10194 58.1137 8.50586 57.8325L31.8076 41.6362L28.0615 39.0327L19.167 32.8511C18.9221 32.6808 18.7783 32.3992 18.7842 32.1011L18.9424 24.2798C18.9535 23.7191 18.45 23.288 17.8975 23.3843L17.7803 23.4038C17.5457 23.4447 17.3371 23.5784 17.2012 23.7739L14.0967 28.2407C13.8157 28.6451 13.2598 28.7453 12.8555 28.4644L8.26367 25.2729C7.85937 24.992 7.75916 24.4361 8.04004 24.0317L19.8506 7.03955ZM18.9502 55.019C18.0156 54.9542 16.9772 55.3184 15.8369 56.1108C14.769 56.8531 14.0987 57.6581 13.8281 58.5249C13.5659 59.386 13.7031 60.2081 14.2402 60.9897C15.2539 62.4648 16.8282 62.6995 18.9609 61.6938L19.752 61.3403C20.4311 61.0349 20.9259 60.8825 21.2344 60.8823C21.5451 60.8688 21.8007 61.0065 22 61.2964C22.4542 61.9573 22.1951 62.6259 21.2236 63.3013C20.5977 63.7363 20.0594 63.9557 19.6104 63.9585C19.1694 63.9553 18.7612 63.6906 18.3877 63.1646L16.4121 64.5376C17.0737 65.483 17.9128 65.9957 18.9287 66.0757C19.9447 66.1554 21.0516 65.7792 22.248 64.9478C23.3883 64.1552 24.1201 63.3011 24.4414 62.3872C24.7622 61.4735 24.6209 60.577 24.0176 59.6987C23.5135 58.9653 22.8822 58.557 22.126 58.4751C21.3722 58.3799 20.413 58.5998 19.25 59.1343L18.4355 59.5034C17.818 59.7779 17.3474 59.9149 17.0254 59.9126C16.7115 59.9044 16.4542 59.7544 16.2549 59.4644C15.8564 58.8841 16.0947 58.2894 16.9697 57.6812C17.5155 57.3019 17.9805 57.1228 18.3623 57.1431C18.752 57.1581 19.1031 57.3669 19.415 57.769L21.3428 56.4292C20.6823 55.5545 19.8846 55.0843 18.9502 55.019ZM78.8691 55.5806C78.4648 55.2995 77.909 55.3989 77.6279 55.8032L73.4111 61.8706C73.1301 62.275 73.2304 62.8308 73.6348 63.1118L74.5439 63.7446C75.7275 64.5672 76.7054 64.751 77.5537 64.564H77.5557C78.4389 64.3694 79.4127 63.7042 80.4258 62.2466C81.4402 60.7868 81.7138 59.6557 81.583 58.7837L81.5791 58.7583C81.4653 57.885 80.9569 57.0308 79.7793 56.2124L78.8691 55.5806ZM25.5576 49.6567L25.6816 51.3931C25.7518 52.2376 25.848 53.2318 25.9688 54.3745C25.8844 54.338 25.7797 54.2905 25.6572 54.2329C25.5347 54.1753 25.3697 54.0993 25.1631 54.0054C24.9641 53.9056 24.7898 53.8169 24.6426 53.7407C24.3263 53.5913 23.8679 53.3739 23.2686 53.0884L21.666 52.3618L19.3643 53.9614L26.1963 56.9858L28.498 60.3354L30.5342 58.9194L28.2324 55.5698L27.7979 48.0991L25.5576 49.6567ZM33.8057 43.9077L35.0439 45.7095C36.1075 47.2572 37.0406 48.5801 37.8428 49.6782C37.1548 49.2988 36.1659 48.8186 34.877 48.2378L30.4199 46.2603L28.2275 47.7847L34.1445 56.394L36.084 55.0464L34.8457 53.2446C33.782 51.6968 32.8546 50.3814 32.0635 49.2993C32.6504 49.618 33.6337 50.0909 35.0127 50.7163L39.4697 52.6929L41.6621 51.1694L35.7451 42.5591L33.8057 43.9077ZM44.6123 38.0933C43.3312 37.8523 41.9827 38.2233 40.5693 39.2056L37.0518 41.6509L42.9688 50.2603L46.4863 47.8149C47.8996 46.8326 48.7237 45.6998 48.958 44.4175C49.1866 43.1271 48.839 41.8084 47.9141 40.4624C46.989 39.1163 45.8879 38.3264 44.6123 38.0933ZM41.7217 40.9595C42.4603 40.4463 43.1767 40.2707 43.8691 40.4321C44.5642 40.5803 45.2059 41.0818 45.793 41.936C46.3801 42.7904 46.6228 43.5752 46.5205 44.2896C46.4205 44.9901 46.0003 45.5974 45.2617 46.1108L43.8164 47.1157L40.2764 41.9644L41.7217 40.9595ZM45.8994 35.5015L51.8164 44.1118L53.8525 42.6968L47.9355 34.0864L45.8994 35.5015ZM56.4502 29.1255C55.3238 29.0749 54.2298 29.4183 53.1699 30.1548C51.8611 31.0646 51.097 32.191 50.8799 33.5327C50.6629 34.8745 51.0308 36.2392 51.9834 37.6255C52.925 38.9957 54.0697 39.8152 55.416 40.0825C56.7624 40.3495 58.0757 40.0392 59.3525 39.1519C60.4445 38.3928 61.1582 37.4433 61.4922 36.3062C61.8178 35.1746 61.6622 34.0077 61.0264 32.8062L58.9902 34.2212C59.2705 34.8362 59.3317 35.4258 59.1729 35.9888C59.0139 36.5516 58.6685 37.0179 58.1387 37.3862C57.4482 37.8659 56.75 37.9997 56.0459 37.7866C55.3498 37.5677 54.7027 37.0223 54.1045 36.1519C53.5063 35.2814 53.228 34.4799 53.2705 33.7476C53.3212 33.0098 53.6924 32.4004 54.3828 31.9204C54.8886 31.569 55.4066 31.4063 55.9346 31.4321C56.4649 31.4447 56.9612 31.6474 57.4219 32.0415L59.4814 30.6099C58.6088 29.6683 57.5982 29.1732 56.4502 29.1255ZM60.4424 25.4272L63.2021 36.23L65.2871 34.7817L64.75 32.939L68.3164 30.4604L69.8535 31.6079L72.0098 30.1089L62.8643 23.7437L60.4424 25.4272ZM32.6211 20.8022L26.8887 21.8843C26.471 21.9632 26.1676 22.3264 26.1631 22.7515L26.085 30.0278C26.076 30.9057 27.2079 31.2664 27.709 30.5454L33.5186 22.187C33.974 21.5317 33.4053 20.6541 32.6211 20.8022ZM62.8398 26.3511C63.8667 27.1376 64.6068 27.6956 65.0586 28.0249L66.5664 29.1577L64.1445 30.8403L63.625 29.022C63.5789 28.8512 63.317 27.9606 62.8398 26.3511ZM64.8311 22.3442L66.0859 24.1704L68.7129 22.3442L73.374 29.1284L75.4229 27.7046L70.7607 20.9214L73.3994 19.0874L72.1445 17.2612L64.8311 22.3442ZM72.9023 16.7349L78.8193 25.3442L85.3613 20.7974L84.1064 18.9712L79.6006 22.103L78.4453 20.4224L82.5537 17.5669L81.374 15.8501L77.2656 18.7056L76.1934 17.145L80.7119 14.0054L79.457 12.1792L72.9023 16.7349Z"
              fill="#010101"/>
    </g>
    <g>
        <path d="M79.4566 12.1781L80.7114 14.004L76.1933 17.1442L77.2653 18.7041L81.3738 15.8486L82.5538 17.5657L78.4453 20.4212L79.6004 22.102L84.1065 18.9702L85.3613 20.7962L78.8191 25.3431L72.9023 16.7334L79.4566 12.1781Z"
              fill="#E6E6E6"/>
        <path d="M64.8311 22.3438L72.1444 17.2609L73.3992 19.0868L70.7606 20.9207L75.4225 27.7045L73.3743 29.128L68.7124 22.3442L66.0859 24.1697L64.8311 22.3438Z"
              fill="#E6E6E6"/>
        <path d="M72.0102 30.1072L69.8535 31.6061L68.317 30.4583L64.7508 32.937L65.2872 34.7797L63.2029 36.2284L60.4428 25.4247L62.8645 23.7416L72.0102 30.1072ZM63.6255 29.0198L64.1453 30.8384L66.567 29.1552L65.0592 28.0233C64.6074 27.694 63.8679 27.136 62.8405 26.3491C63.3178 27.959 63.5795 28.8492 63.6255 29.0198Z"
              fill="#E6E6E6"/>
        <path d="M59.3524 39.151C58.0752 40.0386 56.7633 40.3488 55.4166 40.0817C54.07 39.8146 52.9257 38.9958 51.9839 37.6253C51.031 36.2387 50.6631 34.8744 50.8802 33.5323C51.0973 32.1902 51.8605 31.0642 53.1697 30.1543C54.23 29.4174 55.3235 29.0743 56.4502 29.125C57.5986 29.1726 58.6092 29.6674 59.482 30.6093L57.4217 32.0412C56.9608 31.6469 56.465 31.4435 55.9343 31.4312C55.4061 31.4052 54.889 31.568 54.383 31.9197C53.6922 32.3998 53.3215 33.0089 53.2708 33.7469C53.2282 34.4793 53.5061 35.2809 54.1044 36.1515C54.7027 37.0222 55.3501 37.5669 56.0464 37.7857C56.7508 37.999 57.4483 37.8656 58.1391 37.3855C58.6692 37.017 59.0138 36.5512 59.1727 35.9881C59.3317 35.425 59.271 34.8358 58.9907 34.2206L61.0268 32.8055C61.6628 34.0073 61.8179 35.1741 61.4919 36.306C61.1579 37.4434 60.4447 38.3917 59.3524 39.151Z"
              fill="#E6E6E6"/>
        <path d="M53.8523 42.696L51.8161 44.1112L45.8994 35.5015L47.9356 34.0863L53.8523 42.696Z" fill="#E6E6E6"/>
        <path d="M37.0518 41.6499L40.5699 39.2048C41.9835 38.2222 43.331 37.8515 44.6123 38.0926C45.8881 38.3256 46.9886 39.1153 47.9138 40.4616C48.839 41.8079 49.1872 43.1263 48.9585 44.4169C48.7242 45.6994 47.9002 46.832 46.4866 47.8145L42.9685 50.2596L37.0518 41.6499ZM43.8163 47.1153L45.2621 46.1104C46.0011 45.5968 46.4205 44.9896 46.5205 44.2888C46.6229 43.5744 46.3805 42.7899 45.7933 41.9354C45.2061 41.0808 44.5648 40.5795 43.8696 40.4314C43.1769 40.2696 42.461 40.4455 41.722 40.9591L40.2762 41.9639L43.8163 47.1153Z"
              fill="#E6E6E6"/>
        <path d="M35.0441 45.7079L33.8059 43.9061L35.7457 42.558L41.6624 51.1677L39.4696 52.6917L35.0132 50.7145C33.6338 50.089 32.6506 49.6168 32.0637 49.2981C32.8548 50.3802 33.7822 51.6952 34.8458 53.243L36.084 55.0448L34.1443 56.3929L28.2275 47.7832L30.4203 46.2592L34.8768 48.2364C36.1661 48.8173 37.1548 49.2975 37.8429 49.677C37.0407 48.5787 36.1078 47.2557 35.0441 45.7079Z"
              fill="#E6E6E6"/>
        <path d="M25.6818 51.3907L25.5571 49.6549L27.798 48.0973L28.2322 55.5682L30.534 58.9178L28.4979 60.3329L26.196 56.9834L19.3643 53.959L21.6655 52.3596L23.2684 53.0859C23.8684 53.3718 24.3265 53.5894 24.6428 53.7388C24.7902 53.8151 24.9634 53.9031 25.1626 54.0029C25.3698 54.0972 25.5347 54.1731 25.6574 54.2308C25.7801 54.2884 25.8837 54.3356 25.9682 54.3721C25.8474 53.2292 25.7519 52.2354 25.6818 51.3907Z"
              fill="#E6E6E6"/>
        <path d="M22.2484 64.9466C21.0516 65.7784 19.945 66.1543 18.9288 66.0744C17.9125 65.9946 17.0735 65.4818 16.4118 64.5361L18.3877 63.1628C18.7614 63.6893 19.1688 63.9541 19.6101 63.9571C20.0593 63.9546 20.5972 63.7356 21.2237 63.3001C22.1956 62.6247 22.4544 61.9564 22.0001 61.2954C21.8007 61.0051 21.5455 60.8669 21.2344 60.8805C20.9258 60.8806 20.4316 61.0335 19.7516 61.3393L18.9614 61.692C16.8281 62.6982 15.2546 62.4636 14.2408 60.9884C13.7034 60.2064 13.566 59.3847 13.8285 58.5232C14.0991 57.6562 14.7685 56.8515 15.8368 56.109C16.9774 55.3163 18.015 54.9524 18.9499 55.0174C19.8847 55.0824 20.6824 55.5524 21.343 56.4274L19.4153 57.7672C19.1031 57.3647 18.7521 57.1561 18.3621 57.1413C17.9801 57.1208 17.516 57.3004 16.9699 57.6801C16.0943 58.2885 15.856 58.883 16.2549 59.4634C16.4544 59.7537 16.7111 59.9028 17.0252 59.9108C17.3473 59.9132 17.8175 59.7771 18.4357 59.5022L19.25 59.1328C20.4136 58.5981 21.3724 58.3785 22.1263 58.4739C22.8827 58.5556 23.513 58.9633 24.0172 59.6969C24.621 60.5756 24.7623 61.4721 24.4411 62.3862C24.1198 63.3004 23.3889 64.1539 22.2484 64.9466Z"
              fill="#E6E6E6"/>
    </g>
</svg>
